<?xml version="1.0" encoding="UTF-8"?>
<svg width="145px" height="20px" viewBox="0 0 145 20" version="1.1" xmlns="http://www.w3.org/2000/svg" xmlns:xlink="http://www.w3.org/1999/xlink">
    <title>logo@2x</title>
    <g id="控件" stroke="none" stroke-width="1" fill="none" fill-rule="evenodd">
        <g id="弹窗/背景" transform="translate(-36, -30)">
            <g id="logo" transform="translate(36, 30)">
                <path d="M17.0789843,7.69162463 L22.1705501,19.6538029 L19.4055953,19.6538029 L18.3970183,17.0906035 L13.1115862,17.0906035 L12.1030092,19.6538029 L9.40239055,19.6538029 L14.4780868,7.69162463 L17.0789843,7.69162463 Z M2.84687626,7.69186428 L6.310951,16.235935 L9.8241357,7.69186428 L12.4426185,7.69186428 L7.5148955,19.6536069 L4.91271121,19.6536069 L0,7.69186428 L2.84687626,7.69186428 Z M15.762237,10.4092914 L13.9573926,14.9890632 L17.567296,14.9890632 L15.762237,10.4092914 Z M29.4325187,13.5613186 C29.8442702,13.2024925 30.0499316,12.6929027 30.0499316,12.0316779 C30.0499316,11.3602133 29.8442702,10.8438697 29.4325187,10.4850436 C29.0199092,10.1259996 28.4185804,9.94713119 27.6266019,9.94713119 L25.4799178,9.94713119 L25.4799178,14.1003204 L27.6266019,14.1003204 C28.4185804,14.1003204 29.0199092,13.9201448 29.4325187,13.5613186 M30.3999204,8.22184634 C31.1425745,8.57500794 31.7149521,9.0754473 32.1155521,9.72556095 C32.5163665,10.3741495 32.7181677,11.1440898 32.7181677,12.0316779 C32.7181677,12.9090263 32.5163665,13.6756986 32.1155521,14.3301695 C31.7149521,14.985512 31.1425745,15.4872585 30.3999204,15.8347556 C29.6576953,16.1824706 28.7818654,16.3556744 27.7732884,16.3556744 L25.4799178,16.3556744 L25.4799178,19.6537376 L22.845351,19.6537376 L22.845351,7.691995 L27.7732884,7.691995 C28.7818654,7.691995 29.6576953,7.86846687 30.3999204,8.22184634 M52.4307324,10.4850218 C52.0189808,10.1261957 51.4167941,9.94732727 50.6256734,9.94732727 L48.4792038,9.94732727 L48.4792038,14.1172922 L50.6256734,14.1172922 C51.4167941,14.1172922 52.0189808,13.93472 52.4307324,13.5704472 C52.8433418,13.2057387 53.0494321,12.692881 53.0494321,12.0316561 C53.0494321,11.3601916 52.8433418,10.8438479 52.4307324,10.4850218 L52.4307324,10.4850218 Z M53.0976842,19.6537158 L50.902748,16.3218833 L50.77236,16.3218833 L48.4792038,16.3218833 L48.4792038,19.6537158 L45.8435647,19.6537158 L45.8435647,7.69175535 L50.77236,7.69175535 C51.7809369,7.69175535 52.6561235,7.86844508 53.3983486,8.22160668 C54.1407882,8.57476829 54.7131658,9.07520765 55.115267,9.7253213 C55.515867,10.3741278 55.7163814,11.1438501 55.7163814,12.0316561 C55.7163814,12.9203336 55.5126502,13.6870058 55.1073322,14.3299299 C54.7000841,14.974379 54.1223452,15.4669752 53.3745443,15.8088077 L55.9286909,19.6537158 L53.0976842,19.6537158 Z M65.4200584,17.4323925 L65.4200584,19.6539772 L56.6053574,19.6539772 L56.6053574,7.69179892 L65.2088212,7.69179892 L65.2088212,9.91338367 L59.2240547,9.91338367 L59.2240547,12.5105703 L64.5094869,12.5105703 L64.5094869,14.6641807 L59.2240547,14.6641807 L59.2240547,17.4323925 L65.4200584,17.4323925 Z M68.121878,19.2827763 C67.2812184,19.0341906 66.6056885,18.7124018 66.0972182,18.3161026 L66.9914912,16.2995302 C67.4793739,16.6631494 68.0592574,16.9550905 68.731785,17.1753536 C69.4043126,17.3964881 70.0755535,17.5060749 70.7480811,17.5060749 C71.4967399,17.5060749 72.0493877,17.3932201 72.4073113,17.1677282 C72.765235,16.9409292 72.9438751,16.6411449 72.9438751,16.2666324 C72.9438751,15.9919027 72.8383638,15.7633608 72.6271266,15.5816601 C72.4148172,15.3997416 72.1443908,15.2531174 71.8134883,15.1435306 C71.4828003,15.0330722 71.0354494,14.9117206 70.4718644,14.7801292 C69.6048271,14.5711952 68.8945556,14.3609541 68.340621,14.1515844 C67.7879731,13.9426504 67.313601,13.6064824 66.9181479,13.1432982 C66.5216225,12.6814212 66.3243249,12.0639875 66.3243249,11.2933937 C66.3243249,10.6210576 66.503394,10.0125565 66.8611032,9.46745451 C67.2188123,8.92213464 67.7577351,8.4898875 68.4795872,8.17027734 C69.2003669,7.85175651 70.0809148,7.69162463 71.1218743,7.69162463 C71.8480154,7.69162463 72.5591447,7.77920696 73.2531177,7.95567883 C73.9462329,8.13171496 74.5539954,8.38465798 75.0742607,8.71537933 L74.2608369,10.7482917 C73.2089402,10.1428407 72.1574725,9.8395705 71.1055758,9.8395705 C70.368712,9.8395705 69.8235701,9.96092214 69.4710078,10.2031897 C69.1184455,10.4450215 68.9430222,10.7646317 68.9430222,11.1611487 C68.9430222,11.55723 69.146539,11.8528749 69.5527147,12.0454689 C69.959105,12.2382807 70.5797347,12.4276067 71.4148184,12.614754 C72.2822847,12.8249952 72.9923417,13.0339292 73.5454185,13.2428632 C74.0991386,13.4522329 74.5732963,13.7829542 74.9687494,14.2350272 C75.3644169,14.685793 75.5625724,15.2979979 75.5625724,16.0688096 C75.5625724,16.7298166 75.3802865,17.3330889 75.0174304,17.8779731 C74.6541454,18.4235108 74.1090035,18.8559758 73.3826479,19.1742788 C72.6562924,19.4938889 71.7727421,19.6540208 70.7317826,19.6540208 C69.8319338,19.6540208 68.9612507,19.5302726 68.121878,19.2827763 M78.2642633,19.2827763 C77.4238183,19.0341906 76.7480739,18.7124018 76.2396035,18.3161026 L77.1338765,16.2995302 C77.6219737,16.6631494 78.2016428,16.9550905 78.8741704,17.1753536 C79.546698,17.3964881 80.2179389,17.5060749 80.8904665,17.5060749 C81.6391252,17.5060749 82.1917731,17.3932201 82.5496967,17.1677282 C82.9076204,16.9409292 83.0862605,16.6411449 83.0862605,16.2666324 C83.0862605,15.9919027 82.9807492,15.7633608 82.769512,15.5816601 C82.5572026,15.3997416 82.2867762,15.2531174 81.9558737,15.1435306 C81.6251857,15.0330722 81.1780492,14.9117206 80.6142498,14.7801292 C79.7472124,14.5711952 79.0369409,14.3609541 78.4830064,14.1515844 C77.9303585,13.9426504 77.4559864,13.6064824 77.0605333,13.1432982 C76.6640079,12.6814212 76.4667103,12.0639875 76.4667103,11.2933937 C76.4667103,10.6210576 76.6457793,10.0125565 77.0034885,9.46745451 C77.3611977,8.92213464 77.9001205,8.4898875 78.6219725,8.17027734 C79.3427523,7.85175651 80.2233002,7.69162463 81.2642597,7.69162463 C81.9904008,7.69162463 82.7015301,7.77920696 83.3955031,7.95567883 C84.0886183,8.13171496 84.6963808,8.38465798 85.2166461,8.71537933 L84.4032222,10.7482917 C83.3513256,10.1428407 82.2998579,9.8395705 81.2479612,9.8395705 C80.5110974,9.8395705 79.9659555,9.96092214 79.6133932,10.2031897 C79.2610453,10.4450215 79.0854075,10.7646317 79.0854075,11.1611487 C79.0854075,11.55723 79.2889243,11.8528749 79.6951001,12.0454689 C80.1014904,12.2382807 80.7221201,12.4276067 81.5572038,12.614754 C82.4246701,12.8249952 83.1347271,13.0339292 83.6878039,13.2428632 C84.241524,13.4522329 84.7156817,13.7829542 85.1111348,14.2350272 C85.5068023,14.685793 85.7049578,15.2979979 85.7049578,16.0688096 C85.7049578,16.7298166 85.5226719,17.3330889 85.1598158,17.8779731 C84.7965308,18.4235108 84.2513888,18.8559758 83.5250333,19.1742788 C82.7986778,19.4938889 81.9151275,19.6540208 80.874168,19.6540208 C79.9743192,19.6540208 79.1036361,19.5302726 78.2642633,19.2827763 M92.2692218,7.69179892 C89.0176709,7.69179892 86.3818173,10.3695961 86.3818173,13.6726702 C86.3818173,16.97618 89.0176709,19.6537594 92.2692218,19.6537594 C95.5205582,19.6537594 98.1564118,16.97618 98.1564118,13.6726702 C98.1564118,10.3695961 95.5205582,7.69179892 92.2692218,7.69179892 M92.2692218,10.2040176 C94.151913,10.2040176 95.6835432,11.7600202 95.6835432,13.6726702 C95.6835432,15.5853203 94.151913,17.1415407 92.2692218,17.1415407 C90.3865305,17.1415407 88.8546859,15.5853203 88.8546859,13.6726702 C88.8546859,11.7600202 90.3865305,10.2040176 92.2692218,10.2040176 M39.2791935,7.69179892 C36.0276426,7.69179892 33.391789,10.3695961 33.391789,13.6726702 C33.391789,16.97618 36.0276426,19.6537594 39.2791935,19.6537594 C42.5305299,19.6537594 45.1663834,16.97618 45.1663834,13.6726702 C45.1663834,10.3695961 42.5305299,7.69179892 39.2791935,7.69179892 M39.2791935,10.2040176 C41.1618847,10.2040176 42.6935149,11.7600202 42.6935149,13.6726702 C42.6935149,15.5853203 41.1618847,17.1415407 39.2791935,17.1415407 C37.3965022,17.1415407 35.8646576,15.5853203 35.8646576,13.6726702 C35.8646576,11.7600202 37.3965022,10.2040176 39.2791935,10.2040176" id="形状结合" fill="#000000"></path>
                <path d="M116.222056,0.00331175315 C117.153429,0.043834923 117.805369,0.327932845 118.17809,0.855169787 C118.404125,1.19308074 118.527436,1.58502258 118.54738,2.03099531 C118.567324,2.47718591 118.460741,2.98089327 118.228058,3.54168166 C117.995161,4.10268791 117.625871,4.71445705 117.120403,5.37655336 C116.614507,6.0390854 115.942837,6.75543047 115.104536,7.52602429 C114.958064,7.66131939 114.851695,7.74236573 114.785214,7.76938118 C114.718305,7.79661449 114.678416,7.78964277 114.665335,7.7491196 C114.651824,7.70859643 114.658472,7.64454367 114.685279,7.55630774 C114.711871,7.4687254 114.758193,7.37743934 114.825103,7.28266741 C115.091026,6.91774101 115.400483,6.47503628 115.753259,5.9545532 C116.105607,5.43428798 116.434794,4.90378304 116.741034,4.36303838 C117.04706,3.82229371 117.816092,2.41531183 117.279099,1.81813974 C116.286606,0.714863758 111.756267,3.30420717 107.85685,7.68637404 C105.798092,10.0001163 102.192693,14.8890407 104.77,17.4413468 C105.338732,18.0043138 106.311281,18.7300272 108.617733,18.4956028 C109.43995,18.4119421 110.204692,17.9988672 110.982946,17.6539845 C111.13898,17.5849007 111.293808,17.5137862 111.447432,17.4406376 C111.361575,17.308974 111.284747,17.1647432 111.216357,17.0088818 C111.080179,16.6973327 110.989251,16.3633433 110.944001,16.0053887 C110.898322,15.6480876 110.910117,15.330874 110.978099,15.0539656 C111.318437,13.9467681 111.863579,12.984016 112.612882,12.1650558 C113.362184,11.3465313 114.133575,10.746527 114.928555,10.3661321 C115.723107,9.98551927 116.42716,9.85893883 117.040283,9.98551927 C117.653193,10.1123176 117.993746,10.5563295 118.061942,11.3175551 C118.538459,11.3637428 118.884587,11.524964 119.100543,11.8018723 C119.315854,12.0785628 119.367109,12.3095013 119.253877,12.4938163 C119.071591,12.724537 118.850704,13.0245391 118.589713,13.3933871 C118.328294,13.762453 118.084031,14.1430658 117.857353,14.5350076 C117.630246,14.9276031 117.453965,15.2907865 117.329582,15.6249937 C117.204555,15.9596367 117.19855,16.2077866 117.31264,16.36879 C117.40314,16.5304469 117.624242,16.5936282 117.976589,16.5592053 C118.328294,16.5245645 118.753985,16.4267425 119.253877,16.2648677 C119.752912,16.1038643 120.30942,15.8903551 120.922758,15.6249937 C121.535453,15.3600681 122.148577,15.0659483 122.761701,14.7426344 C123.374395,14.4197562 123.970792,14.0912135 124.549389,13.7565706 L124.707889,13.6638021 C124.71755,13.6371608 124.727237,13.6104143 124.73695,13.5835628 C124.94111,13.018635 125.122753,12.4765831 125.281663,11.9576251 C125.440359,11.4384492 125.565171,10.9833261 125.656529,10.5909485 C125.746599,10.1990067 125.769546,9.92209833 125.724511,9.76044138 C125.882778,9.71468941 126.092943,9.74322993 126.354576,9.84693438 C126.615352,9.95085671 126.859615,10.1011846 127.086508,10.2968287 C127.3134,10.4929086 127.466735,10.7238471 127.546297,10.9887727 C127.625645,11.254352 127.563453,11.5136131 127.358864,11.7674276 C127.199954,11.9521784 127.041043,12.1996748 126.882348,12.511006 C126.723437,12.8225551 126.570103,13.1456511 126.422558,13.4798583 C126.274585,13.8145013 126.133045,14.1373795 125.996867,14.4484928 C125.860689,14.7600419 125.746599,15.0081919 125.656529,15.1925069 C125.905939,14.9155986 126.223545,14.5469685 126.609991,14.0853094 C126.995579,13.6243038 127.387387,13.1571981 127.78477,12.683992 C128.181724,12.2116574 128.545223,11.7730922 128.87441,11.3693855 C129.203597,10.9661146 129.436709,10.6835418 129.572887,10.5216669 C129.867761,10.1990067 130.105805,10.1358254 130.288091,10.3312516 C130.469519,10.5275493 130.673893,10.7412764 130.900786,10.9715613 C131.286588,11.3639389 131.905717,11.6693877 132.757099,11.8883435 C133.261643,12.0183588 133.811979,12.0652802 134.408195,12.0290623 C134.581456,11.8165891 134.763342,11.6143801 134.953515,11.4213467 C135.452549,10.9141535 135.980321,10.5163292 136.537043,10.2276561 C137.092908,9.93941871 137.632045,9.829614 138.154669,9.89889554 C138.42724,9.94530111 138.704958,10.0200293 138.98911,10.1237338 C139.272832,10.2276561 139.522457,10.3660013 139.737983,10.5389873 C139.953509,10.7119733 140.106844,10.9196001 140.197987,11.1616498 C140.288486,11.4039174 140.288486,11.675379 140.197987,11.9747276 C140.061594,12.4366046 139.800603,12.8570869 139.415015,13.2376997 C139.028569,13.6180946 138.58036,13.9527376 138.069531,14.240975 C137.558487,14.5296481 136.996618,14.7544863 136.383709,14.9157075 C135.770799,15.0773645 135.169041,15.1697399 134.57865,15.192398 C134.442471,15.6540571 134.402797,16.0000291 134.459628,16.230314 C134.515815,16.4612525 134.635265,16.6168092 134.817337,16.6974198 C134.998765,16.7780304 135.243028,16.8013421 135.549268,16.7667014 C135.855723,16.7320606 136.190486,16.6688793 136.554199,16.5765039 C137.189412,16.4379408 137.90483,16.2361964 138.699597,15.970835 C139.493934,15.7059094 140.27712,15.4000248 141.049369,15.0540528 C141.820974,14.7080808 142.55312,14.3448973 143.246021,13.9642845 C143.938278,13.5834539 144.500147,13.2322531 144.931629,12.9089392 C145.000254,12.8169995 145.016981,12.834211 144.982883,12.9607914 C144.948785,13.0880254 144.920263,13.1745184 144.897531,13.2204883 C144.057514,14.0738714 143.120994,14.8409793 142.087969,15.5211586 C141.054516,16.2017735 140.050228,16.7719302 139.074248,17.2335893 C138.097625,17.6950305 137.206354,18.0233554 136.400865,18.2196531 C135.594518,18.4155151 135.010131,18.4447092 134.646632,18.3061461 C134.351543,18.190459 134.073182,18.0122442 133.81262,17.7699766 C133.551415,17.5277091 133.335889,17.2510186 133.165184,16.9394695 C132.995122,16.6283561 132.8761,16.305478 132.807903,15.970835 C132.739707,15.6366278 132.739707,15.3194142 132.807903,15.019412 C132.96617,14.3965317 133.238956,13.7684225 133.625187,13.1337774 C133.705158,13.0023166 133.78757,12.8735799 133.872427,12.7475672 C133.518964,12.8096598 133.15845,12.8397666 132.791197,12.8397666 C132.212172,12.8397666 131.66703,12.7707029 131.156415,12.6321398 C130.645371,12.4937945 130.276081,12.2861678 130.049404,12.0092594 C129.890493,11.8251622 129.594976,11.9576251 129.163923,12.4073015 C128.732656,12.8571959 128.261715,13.4280061 127.750672,14.1197323 C127.240057,14.8118942 126.73416,15.5210496 126.235125,16.2476344 C125.735448,16.9742192 125.349645,17.5217177 125.077289,17.8910015 C124.873128,18.1448159 124.679691,18.2424201 124.498263,18.1851213 C124.316406,18.1273866 124.157924,18.0123531 124.021746,17.8391492 C123.885568,17.6661632 123.771478,17.4872948 123.680764,17.3029798 C123.59005,17.1180111 123.544801,17.0027597 123.544801,16.9567899 C123.544801,16.9106022 123.601202,16.7147402 123.714863,16.3687682 C123.828309,16.0225783 123.975639,15.613425 124.157924,15.1406547 C124.219591,14.9800365 124.282595,14.8140571 124.346938,14.642708 L124.328072,14.6561414 C123.601073,15.244381 122.823678,15.8099624 121.995242,16.3513607 C121.166163,16.8931947 120.348879,17.343089 119.54339,17.7008258 C118.737258,18.057909 118.049933,18.2078012 117.482916,18.1505023 C116.915042,18.0925498 116.52924,17.7698895 116.32508,17.1818678 C116.120919,16.5936282 116.21099,15.6195471 116.597436,14.2583172 C116.393061,14.627383 116.10891,15.0313075 115.745839,15.4692192 C115.382769,15.9077845 114.996537,16.3169378 114.588217,16.6973327 C114.179682,17.0779455 113.78187,17.4008236 113.396282,17.666185 C113.009836,17.9311107 112.681078,18.0753383 112.408507,18.09865 C112.302665,18.1082325 112.201043,18.0962663 112.103558,18.0627021 C111.804834,18.260344 111.501171,18.4486206 111.192467,18.627412 C110.434158,19.0664131 109.662124,19.4110779 108.877437,19.6616243 C108.092106,19.9115172 107.320501,20.0230649 106.562192,19.9960494 C106.029917,19.9555263 105.497214,19.8337389 104.965368,19.631123 C104.433093,19.4282893 103.943924,19.1576991 103.498503,18.820006 C103.052438,18.4818772 102.666636,18.0932034 102.340666,17.6539845 C102.014696,17.2145478 101.791878,16.7517993 101.672213,16.2650855 C101.499363,15.4947096 101.529172,14.6360977 101.761855,13.6901213 C101.994537,12.7437092 102.373692,11.7739854 102.899533,10.7805141 C103.424945,9.78682501 104.067235,8.79335375 104.825544,7.79988249 C105.584067,6.80619336 106.398992,5.87350686 107.270533,5.0016051 C108.142074,4.12970335 109.033774,3.34581967 109.944989,2.64951832 C110.856418,1.95343484 111.738038,1.40245045 112.589849,0.996783015 C114.079661,0.294163537 115.290468,-0.0372114167 116.222056,0.00331175315 Z M117.346738,11.3521959 C116.915042,11.3752897 116.483561,11.5136349 116.052723,11.7672315 C115.621027,12.0212639 115.201126,12.3325951 114.792377,12.7012252 C114.383842,13.0707268 114.008977,13.4624508 113.668638,13.8777044 C113.3283,14.2929579 113.038573,14.6853355 112.800314,15.0539656 C112.561627,15.4232494 112.37977,15.7461275 112.255387,16.0226001 C112.13036,16.2995084 112.090257,16.4724944 112.135936,16.541776 C112.203918,16.6801212 112.368619,16.6921039 112.629823,16.5764168 C112.890599,16.4611654 113.197269,16.2648677 113.549188,15.9879593 C113.901321,15.7112689 114.275758,15.3772795 114.673355,14.984902 C115.070309,14.5929601 115.450751,14.1835889 115.814036,13.7565706 C116.176892,13.329988 116.495356,12.9036232 116.767712,12.476387 C117.040283,12.0498044 117.232649,11.6752919 117.346738,11.3521959 Z M138.546262,10.8849593 C138.239808,10.9660057 137.864942,11.1616498 137.422524,11.4731989 C136.979462,11.7845301 136.519887,12.1995658 136.043156,12.7187417 C135.56621,13.2376997 135.180193,13.8204926 134.885533,14.4658132 C135.248175,14.3738736 135.645344,14.2122166 136.077254,13.981496 C136.508306,13.7512111 136.922846,13.4797494 137.320229,13.1684182 C137.717398,12.8570869 138.063741,12.5228797 138.358829,12.1649251 C138.653704,11.8078419 138.846927,11.4557696 138.937855,11.1097976 C138.983319,10.8795127 138.852717,10.8045666 138.546262,10.8849593 Z" id="形状结合" fill="#00FF00"></path>
            </g>
        </g>
    </g>
</svg>