<?xml version="1.0" encoding="UTF-8"?>
<svg width="78px" height="82px" viewBox="0 0 78 82" version="1.1" xmlns="http://www.w3.org/2000/svg" xmlns:xlink="http://www.w3.org/1999/xlink">
    <title>01-2@2x</title>
    <g id="页面-1" stroke="none" stroke-width="1" fill="none" fill-rule="evenodd">
        <g id="Web-PURE-POWER-FOR-ALL-活动页" transform="translate(-866, -450)">
            <g id="编组-2" transform="translate(400, 382)">
                <g id="编组-33" transform="translate(0, 61)">
                    <g id="01-2" transform="translate(466, 7)">
                        <circle id="椭圆形" fill="#CCD6E1" cx="39" cy="43" r="39"></circle>
                        <path d="M9.98765573,45.4692387 L27.2452962,54.5456061 L21.4972208,56.3474331 C23.3059193,58.8488442 25.6241263,60.93655 28.2983275,62.4723002 C36.2903086,67.0749303 46.2912323,66.2312703 53.4033987,60.3544812 L54.4497228,59.4871838 L54.8320335,68.9333291 L66.1873329,68.3753006 L64.9129638,69.5989294 C56.6929962,77.6075909 45.2101774,81.3030853 33.8756172,79.5876216 C22.5410569,77.8721579 12.6585899,70.9430688 7.1639221,60.8587238 L1,62.7950155 L4.91700817,55.1977599 L9.98765573,45.4692387 Z M47.5949585,6.95182505 L49.3052959,7.42917474 C65.0683827,11.932929 75.9551869,26.3499188 76,42.7799447 C76.0078901,49.545618 74.1434822,56.1808983 70.6140887,61.9478879 L75.3694976,66.3247139 L66.844639,66.728108 L55.8984792,67.185288 L55.1204433,47.6879063 L59.5471992,51.76891 C60.8058359,48.9407354 61.4505518,45.8767456 61.4386312,42.7799447 C61.4086628,33.5427589 55.6806485,25.2875546 47.0516748,22.0454878 L45.7840129,21.5748613 L53.7588806,16.532435 L47.5949585,6.95182505 Z M41.223113,-1.13686838e-13 L45.8443778,7.18713828 L51.71989,16.4517562 L35.2402854,26.8929403 L36.5817266,21.0033863 C33.5069047,21.3205562 30.5346201,22.2900032 27.8623591,23.8473148 C19.8914894,28.4890707 15.6183704,37.5911495 17.1308299,46.706314 L17.3588749,48.050961 L9.00840369,43.647242 L3.81031922,53.7858805 L3.38105805,52.0714556 C0.551784994,40.9272207 3.09478724,29.0979696 10.2518196,20.1108217 C17.408852,11.1236739 28.3530933,6.01687575 39.821307,6.31311772 L41.223113,-1.13686838e-13 Z" id="形状结合" fill="#00B43D" fill-rule="nonzero"></path>
                    </g>
                </g>
            </g>
        </g>
    </g>
</svg>