<?xml version="1.0" encoding="UTF-8"?>
<svg width="290px" height="39px" viewBox="0 0 290 39" version="1.1" xmlns="http://www.w3.org/2000/svg" xmlns:xlink="http://www.w3.org/1999/xlink">
    <title>01-3@2x</title>
    <g id="页面-1" stroke="none" stroke-width="1" fill="none" fill-rule="evenodd">
        <g id="Web-PURE-POWER-FOR-ALL-活动页" transform="translate(-400, -382)">
            <g id="01-3" transform="translate(400, 382)">
                <path d="M34.1579687,14.998668 L44.3411003,38.3249157 L38.8111906,38.3249157 L36.7940367,33.3266768 L26.2231723,33.3266768 L24.2060184,38.3249157 L18.8047811,38.3249157 L28.9561735,14.998668 L34.1579687,14.998668 Z M5.69375252,14.9991353 L12.621902,31.6600732 L19.6482714,14.9991353 L24.885237,14.9991353 L15.029791,38.3245334 L9.82542242,38.3245334 L0,14.9991353 L5.69375252,14.9991353 Z M31.5244741,20.2981182 L27.9147851,29.2286732 L35.134592,29.2286732 L31.5244741,20.2981182 Z M58.8650373,26.4445713 C59.6885405,25.7448604 60.0998632,24.7511604 60.0998632,23.4617719 C60.0998632,22.152416 59.6885405,21.145546 58.8650373,20.445835 C58.0398185,19.7456992 56.8371607,19.3969058 55.2532038,19.3969058 L50.9598356,19.3969058 L50.9598356,27.4956247 L55.2532038,27.4956247 C56.8371607,27.4956247 58.0398185,27.1442823 58.8650373,26.4445713 M60.7998409,16.0326004 C62.285149,16.7212655 63.4299042,17.6971222 64.2311042,18.9648439 C65.0327331,20.2295916 65.4363354,21.730975 65.4363354,23.4617719 C65.4363354,25.1726013 65.0327331,26.6676122 64.2311042,27.9438306 C63.4299042,29.2217484 62.285149,30.2001541 60.7998409,30.8777734 C59.3153906,31.5558176 57.5637307,31.8935651 55.5465768,31.8935651 L50.9598356,31.8935651 L50.9598356,38.3247883 L45.6907019,38.3247883 L45.6907019,14.9993902 L55.5465768,14.9993902 C57.5637307,14.9993902 59.3153906,15.3435104 60.7998409,16.0326004 M104.861465,20.4457925 C104.037962,19.7460816 102.833588,19.3972882 101.251347,19.3972882 L96.9584076,19.3972882 L96.9584076,27.5287197 L101.251347,27.5287197 C102.833588,27.5287197 104.037962,27.1727041 104.861465,26.4623721 C105.686684,25.7511905 106.098864,24.7511179 106.098864,23.4617294 C106.098864,22.1523735 105.686684,21.1455035 104.861465,20.4457925 L104.861465,20.4457925 Z M106.195368,38.3247458 L101.805496,31.8276725 L101.54472,31.8276725 L96.9584076,31.8276725 L96.9584076,38.3247458 L91.6871294,38.3247458 L91.6871294,14.9989229 L101.54472,14.9989229 C103.561874,14.9989229 105.312247,15.3434679 106.796697,16.032133 C108.281576,16.7207982 109.426332,17.6966549 110.230534,18.9643765 C111.031734,20.2295491 111.432763,21.7305077 111.432763,23.4617294 C111.432763,25.1946505 111.0253,26.6896614 110.214664,27.9433633 C109.400168,29.200039 108.24469,30.1606016 106.749089,30.827175 L111.857382,38.3247458 L106.195368,38.3247458 Z M130.840117,33.9931653 L130.840117,38.3252556 L113.210715,38.3252556 L113.210715,14.9990079 L130.417642,14.9990079 L130.417642,19.3310982 L118.448109,19.3310982 L118.448109,24.395612 L129.018974,24.395612 L129.018974,28.5951523 L118.448109,28.5951523 L118.448109,33.9931653 L130.840117,33.9931653 Z M136.243756,37.6014137 C134.562437,37.1166717 133.211377,36.4891834 132.194436,35.7164001 L133.982982,31.7840839 C134.958748,32.4931414 136.118515,33.0624266 137.46357,33.4919395 C138.808625,33.9231518 140.151107,34.1368461 141.496162,34.1368461 C142.99348,34.1368461 144.098775,33.9167792 144.814623,33.4770701 C145.53047,33.034812 145.88775,32.4502326 145.88775,31.7199332 C145.88775,31.1842103 145.676728,30.7385535 145.254253,30.3842372 C144.829634,30.029496 144.288782,29.7435789 143.626977,29.5298846 C142.965601,29.3144909 142.070899,29.0778552 140.943729,28.821252 C139.209654,28.4138307 137.789111,28.0038604 136.681242,27.5955895 C135.575946,27.1881682 134.627202,26.5326406 133.836296,25.6294314 C133.043245,24.7287713 132.64865,23.5247756 132.64865,22.0221177 C132.64865,20.7110624 133.006788,19.5244852 133.722206,18.4615363 C134.437625,17.3981626 135.51547,16.5552806 136.959174,15.9320408 C138.400734,15.3109252 140.16183,14.998668 142.243749,14.998668 C143.696031,14.998668 145.118289,15.1694536 146.506235,15.5135737 C147.892466,15.8568442 149.107991,16.3500831 150.148521,16.9949897 L148.521674,20.9591688 C146.41788,19.7785393 144.314945,19.1871625 142.211152,19.1871625 C140.737424,19.1871625 139.64714,19.4237982 138.942016,19.8962199 C138.236891,20.3677919 137.886044,20.9910318 137.886044,21.76424 C137.886044,22.5365985 138.293078,23.113106 139.105429,23.4886643 C139.91821,23.8646474 141.159469,24.2338331 142.829637,24.5987704 C144.564569,25.0087407 145.984683,25.4161619 147.090837,25.8235832 C148.198277,26.2318541 149.146593,26.8767608 149.937499,27.7583031 C150.728834,28.6372964 151.125145,29.8310959 151.125145,31.3341787 C151.125145,32.6231423 150.760573,33.7995234 150.034861,34.8620475 C149.308291,35.925846 148.218007,36.7691528 146.765296,37.3898436 C145.312585,38.0130834 143.545484,38.3253406 141.463565,38.3253406 C139.663868,38.3253406 137.922501,38.0840316 136.243756,37.6014137 M156.528527,37.6014137 C154.847637,37.1166717 153.496148,36.4891834 152.479207,35.7164001 L154.267753,31.7840839 C155.243947,32.4931414 156.403286,33.0624266 157.748341,33.4919395 C159.093396,33.9231518 160.435878,34.1368461 161.780933,34.1368461 C163.27825,34.1368461 164.383546,33.9167792 165.099393,33.4770701 C165.815241,33.034812 166.172521,32.4502326 166.172521,31.7199332 C166.172521,31.1842103 165.961498,30.7385535 165.539024,30.3842372 C165.114405,30.029496 164.573552,29.7435789 163.911747,29.5298846 C163.250371,29.3144909 162.356098,29.0778552 161.2285,28.821252 C159.494425,28.4138307 158.073882,28.0038604 156.966013,27.5955895 C155.860717,27.1881682 154.911973,26.5326406 154.121067,25.6294314 C153.328016,24.7287713 152.933421,23.5247756 152.933421,22.0221177 C152.933421,20.7110624 153.291559,19.5244852 154.006977,18.4615363 C154.722395,17.3981626 155.800241,16.5552806 157.243945,15.9320408 C158.685505,15.3109252 160.4466,14.998668 162.528519,14.998668 C163.980802,14.998668 165.40306,15.1694536 166.791006,15.5135737 C168.177237,15.8568442 169.392762,16.3500831 170.433292,16.9949897 L168.806444,20.9591688 C166.702651,19.7785393 164.599716,19.1871625 162.495922,19.1871625 C161.022195,19.1871625 159.931911,19.4237982 159.226786,19.8962199 C158.522091,20.3677919 158.170815,20.9910318 158.170815,21.76424 C158.170815,22.5365985 158.577849,23.113106 159.3902,23.4886643 C160.202981,23.8646474 161.44424,24.2338331 163.114408,24.5987704 C164.84934,25.0087407 166.269454,25.4161619 167.375608,25.8235832 C168.483048,26.2318541 169.431363,26.8767608 170.22227,27.7583031 C171.013605,28.6372964 171.409916,29.8310959 171.409916,31.3341787 C171.409916,32.6231423 171.045344,33.7995234 170.319632,34.8620475 C169.593062,35.925846 168.502778,36.7691528 167.050067,37.3898436 C165.597356,38.0130834 163.830255,38.3253406 161.748336,38.3253406 C159.948638,38.3253406 158.207272,38.0840316 156.528527,37.6014137 M184.538444,14.9990079 C178.035342,14.9990079 172.763635,20.2207124 172.763635,26.6617069 C172.763635,33.103551 178.035342,38.3248308 184.538444,38.3248308 C191.041116,38.3248308 196.312824,33.103551 196.312824,26.6617069 C196.312824,20.2207124 191.041116,14.9990079 184.538444,14.9990079 M184.538444,19.8978343 C188.303826,19.8978343 191.367086,22.9320393 191.367086,26.6617069 C191.367086,30.3913745 188.303826,33.4260044 184.538444,33.4260044 C180.773061,33.4260044 177.709372,30.3913745 177.709372,26.6617069 C177.709372,22.9320393 180.773061,19.8978343 184.538444,19.8978343 M78.5583869,14.9990079 C72.0552852,14.9990079 66.783578,20.2207124 66.783578,26.6617069 C66.783578,33.103551 72.0552852,38.3248308 78.5583869,38.3248308 C85.0610598,38.3248308 90.3327669,33.103551 90.3327669,26.6617069 C90.3327669,20.2207124 85.0610598,14.9990079 78.5583869,14.9990079 M78.5583869,19.8978343 C82.3237695,19.8978343 85.3870298,22.9320393 85.3870298,26.6617069 C85.3870298,30.3913745 82.3237695,33.4260044 78.5583869,33.4260044 C74.7930044,33.4260044 71.7293152,30.3913745 71.7293152,26.6617069 C71.7293152,22.9320393 74.7930044,19.8978343 78.5583869,19.8978343" id="形状结合" fill="#000000"></path>
                <path d="M232.444112,0.00645791865 C234.306859,0.0854780999 235.610739,0.639469048 236.356181,1.66758108 C236.80825,2.32650743 237.054872,3.09079403 237.09476,3.96044086 C237.134649,4.83051253 236.921481,5.81274188 236.456116,6.90627923 C235.990322,8.00024142 235.251743,9.19319125 234.240807,10.4842791 C233.229013,11.7762165 231.885674,13.1730894 230.209073,14.6757474 C229.916128,14.9395728 229.70339,15.0976132 229.570429,15.1502933 C229.436609,15.2033983 229.356833,15.1898034 229.330669,15.1107832 C229.303648,15.031763 229.316944,14.9068602 229.370558,14.7348001 C229.423742,14.5640145 229.516386,14.3860067 229.650206,14.2012014 C230.182051,13.489595 230.800965,12.6263207 231.506519,11.6113787 C232.211215,10.5968616 232.869588,9.56237694 233.482069,8.50792484 C234.09412,7.45347274 235.632184,4.70985806 234.558199,3.54537249 C232.573213,1.39398433 223.512533,6.44320397 215.713701,14.9884294 C211.596185,19.5002268 204.385385,29.0336293 209.54,34.0106262 C210.677464,35.108412 212.622562,36.523553 217.235466,36.0664255 C218.500414,35.9409344 219.697347,35.43535 220.890882,34.9025775 L221.607113,34.5824746 C221.726589,34.5295214 221.84616,34.4770022 221.965891,34.4252698 C222.277143,34.290909 222.585995,34.1526092 222.89245,34.0103636 C222.722379,33.7510886 222.569151,33.470487 222.432715,33.1673195 C222.160358,32.5597987 221.978501,31.9085195 221.888002,31.2105079 C221.796644,30.5137708 221.820234,29.8952042 221.956198,29.355233 C222.636875,27.1961977 223.727159,25.3188311 225.225763,23.7218588 C226.724367,22.1257361 228.267149,20.9557276 229.857111,20.2139575 C231.446215,19.4717626 232.854319,19.2249307 234.080567,19.4717626 C235.306386,19.7190193 235.987492,20.5848425 236.123884,22.0692324 C237.076918,22.1592984 237.769175,22.4736798 238.201085,23.013651 C238.631709,23.5531974 238.734218,24.0035275 238.507754,24.3629419 C238.143183,24.8128471 237.701408,25.3978513 237.179427,26.1171049 C236.656588,26.8367833 236.168062,27.5789783 235.714706,28.3432649 C235.260493,29.108826 234.90793,29.8170337 234.659164,30.4687378 C234.40911,31.1212916 234.397101,31.605184 234.62528,31.9191405 C234.806279,32.2343715 235.248483,32.357575 235.953179,32.2904504 C236.656588,32.2229009 237.50797,32.0321478 238.507754,31.7164919 C239.505823,31.4025354 240.618839,30.9861925 241.845516,30.4687378 C243.070906,29.9521327 244.297153,29.3785992 245.523401,28.7481371 C246.748791,28.1185247 247.941584,27.4778664 249.098777,26.8253127 L249.414642,26.6474698 C249.43434,26.5945087 249.454093,26.5413346 249.4739,26.4879475 C249.882221,25.3863382 250.245506,24.329337 250.563326,23.3173689 C250.880718,22.3049759 251.130343,21.4174858 251.313057,20.6523496 C251.493199,19.888063 251.539092,19.3480917 251.449021,19.0328607 C251.765555,18.9436444 252.185885,18.9992984 252.709153,19.201522 C253.230705,19.4041706 253.719231,19.69731 254.173015,20.078816 C254.6268,20.4611717 254.933469,20.9115018 255.092594,21.4281068 C255.25129,21.9459864 255.126907,22.4515456 254.717728,22.9464839 C254.399908,23.3067479 254.082087,23.7893658 253.764695,24.3964617 C253.446874,25.0039825 253.140205,25.6340197 252.845116,26.2857238 C252.54917,26.9382775 252.266091,27.5678899 251.993734,28.174561 C251.721378,28.7820818 251.493199,29.2659742 251.313057,29.6253885 C251.811877,29.0854173 252.44709,28.3665886 253.219982,27.4663533 C253.991158,26.5673925 254.774773,25.6565362 255.56954,24.7337844 C256.363448,23.812732 257.090447,22.9575297 257.748821,22.1703018 C258.407194,21.3839235 258.873417,20.8329064 259.145774,20.5172505 C259.735522,19.888063 260.21161,19.7648595 260.576182,20.1459407 C260.939038,20.5287212 261.347787,20.945489 261.801571,21.3945445 C262.573177,22.1596808 263.811434,22.755306 265.514198,23.1822699 C266.522802,23.4356781 267.622902,23.5272086 268.814676,23.4567729 C269.162268,23.0430461 269.526348,22.6483741 269.90703,22.271626 C270.905099,21.2825992 271.960641,20.506842 273.074086,19.9439294 C274.185816,19.3818665 275.26409,19.1677473 276.309339,19.3028463 C276.854481,19.3933372 277.409916,19.5390572 277.978219,19.7412809 C278.545664,19.9439294 279.044913,20.2137026 279.475966,20.5510253 C279.907018,20.888348 280.213687,21.2932202 280.395973,21.7652171 C280.576972,22.2376389 280.576972,22.7669891 280.395973,23.3507188 C280.123188,24.251379 279.601207,25.0713195 278.83003,25.8135145 C278.057138,26.5552846 277.160721,27.2078383 276.139062,27.7699012 C275.116975,28.3328138 273.993236,28.7712484 272.767417,29.0856297 C271.541598,29.4008608 270.338083,29.5809928 269.157299,29.6251761 C268.884943,30.5254114 268.805595,31.2000568 268.919255,31.6491124 C269.031629,32.0994424 269.270531,32.402778 269.634674,32.5599687 C269.99753,32.7171593 270.486056,32.7626172 271.098536,32.6950677 C271.711446,32.6275182 272.380971,32.5043147 273.108399,32.3241826 C274.378824,32.0539846 275.809661,31.660583 277.399194,31.1431283 C278.987869,30.6265233 280.55424,30.0300483 282.098738,29.3554029 C283.641948,28.6807575 285.10624,27.9725497 286.492041,27.2303548 C287.876556,26.4877351 289.000295,25.8028935 289.863258,25.1724314 C290.000508,24.993149 290.033963,25.0267114 289.965767,25.2735432 C289.89757,25.5216496 289.840525,25.690311 289.795061,25.7799521 C288.115029,27.4440492 286.241988,28.9399097 284.175939,30.2662592 C282.109031,31.5934584 280.100456,32.7052638 278.148496,33.6054991 C276.195249,34.5053096 274.412708,35.145543 272.80173,35.5283235 C271.189036,35.9102544 270.020262,35.9671829 269.293263,35.6969849 C268.703086,35.471395 268.146363,35.1238762 267.62524,34.6514544 C267.10283,34.1790327 266.671778,33.6394863 266.330367,33.0319655 C265.990243,32.4252945 265.752199,31.7956821 265.615807,31.1431283 C265.479414,30.4914242 265.479414,29.8728577 265.615807,29.2878534 C265.932341,28.0732368 266.477912,26.8484239 267.250375,25.6108659 C267.410405,25.3543737 267.575324,25.1031993 267.74514,24.8573427 C267.039041,24.9787461 266.317467,25.0375448 265.582395,25.0375448 C264.424343,25.0375448 263.334059,24.9028706 262.31283,24.6326726 C261.290742,24.3628994 260.552163,23.9580272 260.098807,23.4180559 C259.780986,23.0590664 259.189951,23.3173689 258.327846,24.194238 C257.465312,25.071532 256.523431,26.1846119 255.501343,27.5334779 C254.480113,28.8831936 253.46832,30.2660468 252.470251,31.6828871 C251.470896,33.0997275 250.69929,34.1673496 250.154577,34.8874529 C249.746257,35.3823911 249.359382,35.5727193 248.996526,35.4609864 C248.632812,35.3484039 248.315849,35.1240886 248.043492,34.786341 C247.771136,34.4490183 247.542957,34.1002249 247.361529,33.7408106 C247.180101,33.3801217 247.089601,33.1553815 247.089601,33.0657403 C247.089601,32.9756743 247.202404,32.5937434 247.429725,31.919098 C247.656617,31.2440277 247.951277,30.4461788 248.315849,29.5242767 C248.439837,29.2094078 248.566529,28.8839733 248.695926,28.5479562 L248.656144,28.5794757 C247.202147,29.7265429 245.647355,30.8294267 243.990484,31.8851533 C242.332326,32.9417296 240.697758,33.8190235 239.08678,34.5166103 C237.474515,35.2129226 236.099865,35.5052123 234.965833,35.3934794 C233.830085,35.2804721 233.058479,34.6512845 232.650159,33.5046422 C232.241839,32.357575 232.42198,30.4581168 233.194872,27.8037185 C232.786123,28.5233969 232.21782,29.3110497 231.491679,30.1649774 C230.765538,31.0201797 229.993075,31.8180286 229.176434,32.5597987 C228.359364,33.3019937 227.56374,33.9316061 226.792564,34.4490608 C226.019672,34.9656659 225.362156,35.2469097 224.817014,35.2923676 C224.605388,35.3110483 224.402195,35.2877319 224.207275,35.2223221 C223.610363,35.6072509 223.002695,35.9746108 222.384934,36.3234535 C220.868316,37.1795054 219.324248,37.8516018 217.754874,38.3401675 C216.184213,38.8274586 214.641002,39.0449765 213.124384,38.9922964 C212.059834,38.9132762 210.994427,38.6757908 209.930735,38.2806899 C208.866186,37.8851642 207.887847,37.3575133 206.997005,36.6990118 C206.104877,36.0396606 205.333272,35.2817466 204.681332,34.4252698 C204.029392,33.5683681 203.583756,32.6660086 203.344426,31.7169168 C202.998726,30.2146837 203.058344,28.5403905 203.523709,26.6957366 C203.989074,24.850233 204.747383,22.9592715 205.799066,21.0220026 C206.84989,19.0843088 208.134469,17.1470398 209.651087,15.2097709 C211.168135,13.2720771 212.797985,11.4533384 214.541067,9.75312995 C216.284148,8.05292154 218.067547,6.52434835 219.889977,5.16656072 C221.712836,3.80919793 223.476076,2.73477837 225.179698,1.94372688 C228.159322,0.573618897 230.580936,-0.0725622626 232.444112,0.00645791865 Z M234.693476,22.1367819 C233.830085,22.1818149 232.967122,22.4515881 232.105446,22.9461015 C231.242054,23.4414646 230.402253,24.0485605 229.584754,24.7673892 C228.767685,25.4879173 228.017954,26.2517791 227.337277,27.0615235 C226.6566,27.871268 226.077145,28.6364042 225.600629,29.355233 C225.123254,30.0753362 224.75954,30.7049487 224.510774,31.2440702 C224.26072,31.7840415 224.180515,32.1213642 224.271872,32.2564632 C224.407836,32.5262364 224.737237,32.5496026 225.259647,32.3240127 C225.781199,32.0992725 226.394537,31.7164919 227.098375,31.1765207 C227.802642,30.6369743 228.551515,29.9856951 229.34671,29.2205588 C230.140619,28.4562722 230.901501,27.6579984 231.628071,26.8253127 C232.353784,25.9934766 232.990712,25.1620653 233.535425,24.3289547 C234.080567,23.4971186 234.465297,22.7668192 234.693476,22.1367819 Z M277.092524,21.2256707 C276.479615,21.3837111 275.729884,21.7652171 274.845047,22.3727379 C273.958923,22.9798338 273.039774,23.7891534 272.086311,24.8015463 C271.13242,25.8135145 270.360386,26.9499606 269.771066,28.2083358 C270.49635,28.0290534 271.290687,27.7138224 272.154508,27.2639172 C273.016613,26.8148616 273.845692,26.2855114 274.640458,25.6784155 C275.434795,25.0713195 276.127482,24.4196155 276.717659,23.7216039 C277.307407,23.0252916 277.693853,22.3387507 277.87571,21.6641053 C277.966639,21.2150497 277.705434,21.0689049 277.092524,21.2256707 Z" id="形状结合" fill="#00FF00"></path>
            </g>
        </g>
    </g>
</svg>