<?xml version="1.0" encoding="UTF-8"?>
<svg width="100px" height="100px" viewBox="0 0 100 100" version="1.1" xmlns="http://www.w3.org/2000/svg" xmlns:xlink="http://www.w3.org/1999/xlink">
    <title>icon 2@2x</title>
    <g id="icon-2" stroke="none" stroke-width="1" fill="none" fill-rule="evenodd">
        <path d="M82.4294367,62.6999292 C84.3810417,62.6999292 85.4319059,64.2030135 84.8314121,66.0067146 C82.1291898,69.9147336 77.3252391,72.7705936 72.9716588,74.2736779 C74.1726464,78.7829306 69.9691896,86.1480433 55.7074608,85.9977349 C46.7000532,85.697118 38.143016,79.3841643 34.239806,74.2736779 C30.0363492,68.8625746 29.5859788,64.8042472 29.4358553,64.9545556 C29.2857319,64.8042472 33.9395591,66.7582567 39.1938802,66.7582567 C44.5983248,67.0588735 50.1528928,65.7060977 54.3563497,65.104864 C62.1627696,64.0527051 66.51635,64.9545556 70.5696834,69.4638083 C63.8141277,74.4239863 55.2570905,75.3258368 48.8017817,74.4239863 C42.3464729,73.6724442 38.143016,71.2675094 37.8427691,71.117201 C37.8427691,71.4178178 51.8042509,79.8350895 67.1168438,74.5742947 C68.4679549,74.1233694 69.9691896,73.3718273 71.6205476,72.4699768 C71.9207945,72.3196683 72.070918,72.1693599 72.3711649,72.0190515 C76.7247453,69.6141167 81.2284491,65.7060977 82.4294367,62.6999292 M35.1405468,24.3712812 C41.5958556,22.5675801 45.4990656,23.7700475 45.4990656,23.6197391 C45.649189,23.6197391 42.046226,27.0768329 39.7943741,31.8867024 C37.2422752,36.696572 36.3415345,42.2579836 34.9904233,46.3163111 C32.7385714,53.8317322 30.1864726,57.4391344 24.4817811,59.3931439 C22.6802996,51.4267975 25.5326454,43.1598342 28.8353615,37.7487309 C32.1380776,32.1873193 36.0412876,29.1811508 36.3415345,29.0308424 C36.0412876,28.8805339 22.8304231,38.500273 21.3291885,54.4329659 C21.3291885,55.7857418 21.179065,57.4391344 21.3291885,59.2428355 L21.4793119,59.9943776 C21.7795589,65.104864 23.4309169,70.8165841 25.6827688,73.0712105 C24.7820281,74.8749115 23.13067,75.1755284 21.7795589,73.973061 C19.3775835,70.065042 18.7770897,64.5036303 19.22746,59.9943776 C14.7237562,59.0925271 9.76968205,52.4789564 15.7746204,39.4021236 C19.8279539,31.2854687 28.8353615,25.8743655 35.1405468,24.3712812 Z M50.0027694,14 C54.5064732,14.7515421 59.3104239,18.0583274 62.4630165,21.3651128 C66.0659796,18.3589443 74.3227699,19.1104864 80.4778318,32.3376277 C84.2309183,40.7548994 82.4294367,51.1261806 79.577091,56.8379007 C76.7247453,62.8502377 73.2719057,64.9545556 73.4220291,65.104864 C73.4220291,65.2551724 72.9716588,60.2949945 70.7198069,55.4851249 C68.6180784,50.5249469 65.0151154,45.8653858 62.61314,42.2579836 C58.2595597,35.644413 57.058572,31.2854687 59.4605473,25.724057 C66.8165969,29.7823845 71.3203007,37.2978057 73.4220291,43.460451 C75.5237576,49.7734048 75.2235107,54.5832744 75.3736341,54.8838912 C75.673881,54.7335828 77.0249922,38.500273 65.4654857,26.776216 C64.4146215,25.8743655 63.2136338,24.6718981 61.7123992,23.6197391 L60.9617819,23.0185054 C56.7583251,19.8620285 51.203757,17.3067853 48.0511644,17.4570937 C47.3005471,15.6533927 48.2012878,14.1503084 50.0027694,14 L50.0027694,14 Z" id="节能备份" fill="#FFFFFF" fill-rule="nonzero"></path>
    </g>
</svg>