<?xml version="1.0" encoding="UTF-8"?>
<svg width="100px" height="100px" viewBox="0 0 100 100" version="1.1" xmlns="http://www.w3.org/2000/svg" xmlns:xlink="http://www.w3.org/1999/xlink">
    <title>icon 1@2x</title>
    <g id="icon-1" stroke="none" stroke-width="1" fill="none" fill-rule="evenodd">
        <path d="M48.6937906,17.6798545 C57.8725047,17.6950067 65.7592589,23.8511665 68.1231853,33.2016455 L73.6280138,33.390849 L74.1339981,33.6031998 C82.0677509,36.9343897 86.3416178,44.1200984 85.9786291,51.9961988 C85.6306399,59.5723914 81.003784,66.1280926 74.0490007,67.907411 L73.6840121,68 L23.6055722,67.9587375 L23.1375868,67.7977132 C18.3967344,66.1774063 14.5978528,60.4368906 14.0668693,54.298846 C13.4418888,47.0839517 17.2017717,40.5614617 25.1815231,36.7864486 L25.7155065,36.5338418 L26.981467,36.4684256 C30.4363594,24.5566541 38.8620969,17.6638083 48.6937906,17.6798545 Z M48.618793,22.7632035 C40.7330387,22.7501629 33.8992515,28.7573752 31.3693303,39.9465502 L30.8393468,42.2914664 L26.081495,42.536022 C20.4746697,45.3831327 18.1347426,49.6210905 18.5477298,54.4004927 C18.8827193,58.2841972 21.1346492,61.8871155 23.4135781,62.9770487 L74.0520006,63.0193175 C78.2978684,61.7432001 81.2457766,57.4267428 81.4837691,52.2357224 C81.7367612,46.7196342 78.9128492,41.7842399 73.4190203,39.2561586 L63.6673241,38.9210268 L63.3023355,36.2741901 C62.1783705,28.1223356 55.9825635,22.7753229 48.618793,22.7632035 Z M38.5628,41.4302 L38.9098461,41.436118 C40.8562446,41.4942036 42.4879839,42.0460162 43.7629442,43.0915558 C45.0629038,44.1482777 45.8378796,45.6075602 46.112871,47.4190835 L43.2629598,47.4190835 C42.9629692,46.2365614 42.4139863,45.3811198 41.588012,44.8275989 C40.7890369,44.2740779 39.7630689,44.0224774 38.5131078,44.0224774 C36.6391661,44.0224774 35.2392097,44.6514786 34.2892393,45.9598009 C33.4142666,47.117163 32.9892798,48.7274058 32.9892798,50.7905295 C32.9892798,52.9039732 33.4132666,54.5393761 34.2632401,55.6715781 C35.1882113,56.8792602 36.6381662,57.5082614 38.5881054,57.5082614 C39.8630657,57.5082614 40.913033,57.1811807 41.7130081,56.5773397 C42.5629816,55.8980185 43.1629629,54.8664567 43.512952,53.5078143 L46.3628632,53.5078143 C45.9628757,55.6212581 45.0389045,57.256661 43.5629504,58.439183 C42.1889933,59.546225 40.5390446,60.0997459 38.6131046,60.0997459 C35.6381973,60.0997459 33.4132666,59.1436643 31.9633118,57.281821 C30.6883515,55.6715781 30.063371,53.5078143 30.063371,50.7905295 C30.063371,48.1235647 30.7133507,45.9346409 32.0393094,44.2740779 C33.4837089,42.4327354 35.5540148,41.501296 38.2502271,41.4348264 L38.5628,41.4302 Z M57.0385307,41.4309928 C59.7634458,41.4309928 61.9133788,42.3115944 63.4883297,44.0979576 C64.988283,45.7836806 65.7382596,48.0229246 65.7382596,50.7905295 C65.7382596,53.5581344 64.988283,55.7722183 63.4883297,57.4579413 C61.9133788,59.2191444 59.7634457,60.0997459 57.0385307,60.0997459 C54.2886163,60.0997459 52.1386833,59.1939843 50.5887315,57.4327812 C49.0887783,55.7218982 48.3628009,53.5078142 48.3628009,50.7905295 C48.3628009,48.0480846 49.0877783,45.8340007 50.5877316,44.1231176 C52.0780697,42.3812683 54.1231244,41.5001085 56.7228955,41.4349037 L57.0385307,41.4309928 Z M71.6550753,48.940763 C72.6240451,48.940763 73.4260202,49.2235619 74.0580004,49.7891597 C74.6759812,50.3547575 74.9859715,51.0763476 74.9859715,51.9821092 C74.9859715,52.8586852 74.648982,53.6517298 74.0020021,54.3723134 C73.6080145,54.7970149 72.9060363,55.3354399 71.922067,55.9996651 C70.896099,56.6789862 70.2771182,57.2727633 70.0521252,57.7820026 L74.9999711,57.7820026 L74.9999711,59.238266 L68.0001892,59.238266 C68.0001892,58.2067043 68.3231791,57.3160387 68.998158,56.5511733 C69.3631467,56.1274782 70.1371226,55.5045154 71.3030863,54.6983876 C71.9500661,54.2455068 72.4000521,53.8630742 72.6810433,53.5661856 C73.1160298,53.0710359 73.3410228,52.5336174 73.3410228,51.9680196 C73.3410228,51.4165114 73.1860276,51.0058994 72.9060363,50.7371902 C72.6100455,50.4684808 72.1750591,50.3406678 71.598077,50.3406678 C70.9800963,50.3406678 70.5171107,50.5530186 70.2071204,50.9777202 C69.8981301,51.3742425 69.7291353,51.9821092 69.7011362,52.7741474 L68.0561874,52.7741474 C68.070187,51.6429518 68.3941769,50.7371902 69.0401568,50.0437793 C69.6539234,49.3606481 70.4487557,48.9951189 71.4262552,48.9463858 L71.6550753,48.940763 Z M57.038,44.0222 C55.1885883,44.0224774 53.7636327,44.6514786 52.7386646,45.9094808 C51.7636949,47.117163 51.2887098,48.7274058 51.2887098,50.7905295 C51.2887098,52.8284931 51.763695,54.438736 52.7386646,55.6464181 C53.7386334,56.8792602 55.1885882,57.5082614 57.0385307,57.5082614 C58.888473,57.5082614 60.3134287,56.9044203 61.3133975,55.7218982 C62.2873671,54.5393761 62.7873515,52.9039732 62.7873515,50.7905295 C62.7873515,48.6770857 62.2873671,47.0165228 61.3133975,45.8088406 C60.3634271,44.6615426 59.0299061,44.081918 57.3119772,44.0268238 L57.038,44.0222 Z M78.9258488,21.8282989 C85.596641,20.2341584 88.3985537,30.2096129 82.4137401,32.514273 L82.0279322,32.1012372 C79.5258929,29.4689167 78.3626782,29.2254791 74.8510351,29.2017309 L72.3621131,29.1961276 C72.2203757,29.1953659 72.0757289,29.1943932 71.9280668,29.1931472 C72.3590533,21.9530927 64.4932984,18.6229092 64.2913047,18.532333 C71.3960834,8.67563399 79.560829,17.3015036 78.9258488,21.8282989 Z M52.6964,68 L52.6966793,78.5326722 L53.0066414,78.2309191 C53.8841396,77.3777227 55.3062544,77.3766602 56.1826612,78.2309191 C57.0612509,79.085178 57.0612509,80.4696299 56.1826612,81.3238888 L52.0374642,85.3593058 C51.6172691,85.7694351 51.0453673,86 50.4494543,86 C49.8546327,86 49.2827309,85.7694351 48.8614444,85.3593058 L44.7173388,81.3238888 C43.8387491,80.4696299 43.8387491,79.085178 44.7173388,78.2309191 C45.5937456,77.3766602 47.0169518,77.3766602 47.8933586,78.2309191 L48.2033207,78.5326722 L48.2027,68 L52.6964,68 Z M67.4546,68 L67.454803,71.0494068 L67.7647651,70.7487161 C68.6422633,69.8944572 70.064378,69.8944572 70.9418763,70.7487161 C71.8193746,71.602975 71.8193746,72.9884895 70.9418763,73.8416859 L66.7966793,77.8771029 C66.3753928,78.2872322 65.8045824,78.5177971 65.2086694,78.5177971 C64.6127564,78.5177971 64.0408546,78.2872322 63.6195681,77.8771029 L59.4743711,73.8416859 C58.5979642,72.987427 58.5979642,71.602975 59.4743711,70.7487161 C60.3529608,69.8944572 61.7750755,69.8944572 62.6525737,70.7487161 L62.9614444,71.0494068 L62.9609,68 L67.4546,68 Z M37.9382,68 L37.9385556,71.0494068 L38.2474263,70.7487161 C39.1249245,69.8944572 40.5470392,69.8944572 41.4256289,70.7487161 C42.3031272,71.602975 42.3031272,72.9884895 41.4245375,73.8416859 L37.2804319,77.8771029 C36.8591454,78.2872322 36.2872436,78.5177971 35.6913306,78.5177971 C35.0954176,78.5177971 34.5235158,78.2872322 34.1022293,77.8771029 L29.9581237,73.8416859 C29.0806254,72.987427 29.0806254,71.602975 29.9581237,70.7487161 C30.835622,69.8944572 32.2577367,69.8944572 33.1352349,70.7487161 L33.4441056,71.0494068 L33.4436,68 L37.9382,68 Z" id="形状备份" fill="#FFFFFF" fill-rule="nonzero"></path>
    </g>
</svg>