<?xml version="1.0" encoding="UTF-8"?>
<svg width="100px" height="100px" viewBox="0 0 100 100" version="1.1" xmlns="http://www.w3.org/2000/svg" xmlns:xlink="http://www.w3.org/1999/xlink">
    <title>icon 3@2x</title>
    <g id="icon-3" stroke="none" stroke-width="1" fill="none" fill-rule="evenodd">
        <path d="M17.2301234,49.6078426 L17.3347724,49.615384 C17.438801,49.6304668 17.5400381,49.6681738 17.6301094,49.7285051 L22.191736,52.3320696 L22.2786848,52.3905881 C22.5495439,52.6033191 22.6285355,52.9846105 22.450784,53.290503 L22.429941,53.3238569 L22.2217922,53.6960883 C21.2167702,55.5650122 20.745943,57.5470464 20.7357077,59.4894193 L20.74067,59.9116594 C20.8013226,62.0194282 21.3975331,64.0715308 22.4368887,65.8796298 L22.6360741,66.2149924 C23.7255725,67.9878352 25.2479417,69.5045846 27.1096776,70.5746786 L27.1464009,70.5942985 L27.4899292,70.7828828 C29.2260426,71.7010042 31.2377586,72.2439053 33.4588345,72.2668974 L33.5164008,72.2629734 L45.2956402,72.2629734 L45.2956402,66.8880941 L45.3021358,66.7928733 C45.3492501,66.450304 45.6469099,66.1857007 46.0062852,66.1857007 L46.1257212,66.1955499 C46.2810944,66.2214482 46.419571,66.2969457 46.5243812,66.4044629 L56.8059064,75.0607751 L56.8808652,75.1341965 C57.1089288,75.3927491 57.1182798,75.781094 56.8872931,76.0486385 L56.8439944,76.0943774 L56.7969737,76.1349662 L46.466815,84.8324802 L46.3728272,84.8992547 C46.0796921,85.0739623 45.6952291,85.0188695 45.4683388,84.7540005 L45.4070646,84.6713614 C45.3349043,84.5572519 45.3006028,84.4287021 45.3006028,84.3007802 L45.2956402,78.9259009 L33.5164008,78.9259009 L33.0297736,78.9201331 C29.6316284,78.8394881 26.4104466,77.9153408 23.6070709,76.2850586 L23.2101523,76.0479077 C20.4521132,74.3544374 18.1261443,71.9614953 16.4748149,69.0090083 L16.2419242,68.5809009 C14.7275886,65.7132475 13.9787191,62.5780631 14.00046,59.4482174 L14.0104583,58.9597565 C14.113538,55.8668914 14.9721381,52.7923531 16.5939175,50.0002411 L16.6043389,49.980376 L16.617738,49.9590393 L16.6683565,49.8817858 L16.7279078,49.8148328 C16.8668607,49.6755313 17.0484921,49.6078426 17.2301234,49.6078426 Z M68.9990271,33.4027631 L69.0640372,33.4057061 L69.1290473,33.414535 L69.1850007,33.4276559 L69.2372321,33.4429839 L82.0347981,37.9408524 L82.1315439,37.9824309 C82.4386885,38.1420215 82.588715,38.5038552 82.4705148,38.8365021 L82.426026,38.9340367 C82.3584393,39.0581288 82.2587108,39.1574841 82.1380203,39.2210527 L77.6190721,41.8000922 L82.3861505,49.9590393 L82.626226,50.3821688 C84.1881568,53.2170885 84.9786627,56.3286489 84.9994584,59.4482174 L84.9972045,59.9177002 C84.9435306,63.0473976 84.1170599,66.1687902 82.528081,69.0090083 L82.2877369,69.4269589 C80.5734852,72.3256781 78.1944185,74.6566046 75.3948325,76.2840776 L74.9914049,76.5122844 C72.147923,78.0758574 68.899008,78.9259009 65.4855027,78.9259009 L60.3164532,78.9259009 L60.2201138,78.9194989 C59.87352,78.8730565 59.6058082,78.5795274 59.6058082,78.2225265 L59.6058082,72.9663478 L59.6123038,72.8711077 C59.6594181,72.528401 59.9570779,72.2629734 60.3164532,72.2629734 L65.4855027,72.2629734 L65.9313484,72.2564874 C68.1462926,72.1743733 70.1453888,71.571003 71.8574876,70.5942985 L72.205334,70.3882342 C74.0388874,69.2614808 75.5243857,67.6948194 76.5650148,65.8796298 L76.766797,65.5148124 C77.7460489,63.6750167 78.2782301,61.6037731 78.2652033,59.4894193 L78.2568189,59.1004612 C78.1840337,57.1534791 77.6466766,55.1770204 76.5719624,53.3238569 L76.552112,53.290503 L71.784041,45.127632 L66.8968676,47.9156238 L66.8024289,47.9605138 C66.4813622,48.0851983 66.1060088,47.9625332 65.9291596,47.6566407 L65.8842976,47.5650785 C65.8344334,47.4405468 65.8239523,47.3076022 65.8477728,47.1828195 L68.3022773,33.977627 C68.3667912,33.6411452 68.66554,33.4027631 68.9990271,33.4027631 Z M57.5592298,43.9180635 L57.5592298,61.4111912 L57.5525212,61.5509482 C57.4815041,62.2868205 56.8553573,62.8620849 56.0902987,62.8620849 L42.9086271,62.8620849 L42.7673934,62.8554448 C42.0237036,62.7851565 41.4416811,62.1655198 41.4416811,61.4111912 L41.4416811,43.9180635 L57.5592298,43.9180635 Z M49.6845681,13 L50.2361035,13.0128539 C51.7050346,13.0674344 53.1582814,13.284271 54.5707491,13.6592296 L55.1158106,13.8120295 C56.5634372,14.2406213 57.9629653,14.8378423 59.2872089,15.5947355 L59.7777662,15.8849287 C61.0732444,16.6765081 62.2664262,17.6091571 63.3357022,18.6642732 L63.7292456,19.0639774 C64.7631557,20.1448874 65.6717658,21.3453364 66.4313752,22.6480996 L66.4422929,22.6674742 L66.4532107,22.6883204 L70.0709498,28.8823317 L70.0956387,28.9185059 L70.1166057,28.9568874 L70.1590179,29.0530332 C70.2742279,29.3783835 70.1306815,29.7442708 69.8148793,29.9074729 L65.0924643,32.332496 L64.9956827,32.3734863 C64.6680017,32.4847126 64.2978159,32.3445355 64.1326965,32.0332921 L64.1207863,32.0077862 L60.6201647,26.0148792 L60.6080063,25.9962403 L60.5973367,25.9776013 L60.3776949,25.6156788 C59.853039,24.7825485 59.2440343,24.0292199 58.5666387,23.3622649 L58.2239903,23.0367629 C57.5281781,22.3999275 56.7701756,21.8484474 55.9662336,21.3885002 L55.9375746,21.3736626 L55.9096599,21.3580893 L55.4840738,21.1238171 C54.6275253,20.673514 53.7397254,20.3322474 52.8387999,20.092604 L52.3643054,19.9768464 C51.4133777,19.7635097 50.4519286,19.6590035 49.4999592,19.6590035 L49.024015,19.6677324 C48.0707087,19.7026879 47.1101104,19.8428703 46.1640961,20.092604 L45.717288,20.2191782 C44.8268664,20.4892468 43.9564457,20.8611446 43.1210266,21.3404314 L43.0872809,21.3600513 L42.6796326,21.6014651 C41.872739,22.0995424 41.1174103,22.6887409 40.4342722,23.3622649 L40.1488061,23.6533718 C39.4924163,24.3448708 38.9047974,25.1218046 38.4045668,25.9776013 L30.339341,39.7812017 L34.8473714,42.3572982 L34.9329982,42.4118024 C35.0419056,42.4926365 35.1284534,42.6054903 35.1768884,42.7428298 L35.2046387,42.8430027 C35.2709236,43.178303 35.0788995,43.5198681 34.7441493,43.6384795 L21.9445982,48.136348 L21.8917465,48.1503272 L21.837406,48.1628349 L21.7412078,48.1736559 C21.3911644,48.1895738 21.0770522,47.9486507 21.010636,47.5997429 L18.5541465,34.3955314 L18.5437925,34.2999039 C18.5374721,34.1715111 18.5668507,34.0406069 18.6375182,33.9197482 L18.6962291,33.8340072 C18.9099529,33.5667354 19.2955597,33.4870396 19.6032412,33.6627271 L24.5053025,36.4536619 L32.5367825,22.7089213 L32.5633325,22.6547213 L32.5943487,22.6049357 L32.8849641,22.1270048 C33.6778263,20.8651931 34.6128056,19.7054374 35.6662013,18.6642732 L36.0724228,18.2743816 C37.171292,17.2501729 38.3939799,16.3507567 39.7146945,15.5947355 L40.214503,15.3178859 C41.556642,14.6000172 42.9721485,14.0455242 44.4331394,13.6592296 L44.9640524,13.5260401 C46.3847543,13.1906766 47.8438827,13.0139519 49.3163428,13 L49.6845681,13 Z M48.2215921,35.5334873 L48.2962945,35.5410578 C48.4414052,35.5708652 48.5573478,35.685822 48.5828698,35.8346531 L49.1793749,39.3014944 L49.2030906,39.3930514 C49.2848885,39.6288565 49.5105461,39.7939546 49.7699249,39.7939546 L55.9642486,39.7939546 L56.1091999,39.800393 C56.9209255,39.872837 57.5592298,40.5476868 57.5592298,41.3704158 L57.5592298,43.1293424 L41.4416811,43.1293424 L41.4416811,41.3704158 L41.4482041,41.2268559 C41.5216005,40.4230973 42.2053157,39.7939546 43.0386474,39.7939546 L43.1347068,39.786326 C43.3853068,39.746128 43.5868498,39.5509945 43.6291974,39.2946274 L44.1899718,35.8395581 L44.2096196,35.7670044 C44.2629727,35.6286239 44.3972669,35.5334873 44.5512494,35.5334873 L48.2215921,35.5334873 Z" id="形状结合备份" fill="#FFFFFF"></path>
    </g>
</svg>