<?xml version="1.0" encoding="UTF-8"?>
<svg width="34px" height="34px" viewBox="0 0 34 34" version="1.1" xmlns="http://www.w3.org/2000/svg" xmlns:xlink="http://www.w3.org/1999/xlink">
    <title>06-1-2@2x</title>
    <defs>
        <radialGradient cx="50%" cy="50%" fx="50%" fy="50%" r="84.7716174%" id="radialGradient-1">
            <stop stop-color="#5FB33C" stop-opacity="0" offset="0%"></stop>
            <stop stop-color="#5FB33C" stop-opacity="0" offset="65.0668911%"></stop>
            <stop stop-color="#5FB33C" stop-opacity="0.310000546" offset="100%"></stop>
        </radialGradient>
        <circle id="path-2" cx="12" cy="12" r="12"></circle>
    </defs>
    <g id="控件" stroke="none" stroke-width="1" fill="none" fill-rule="evenodd">
        <g id="能量/1" transform="translate(-186, -388)">
            <g id="编组-24" transform="translate(25, 25)">
                <g id="编组-15" transform="translate(30, 355)">
                    <g id="编组-25" transform="translate(20, 13)">
                        <g id="06-1-2" transform="translate(116, 0)">
                            <g id="椭圆形">
                                <circle stroke="url(#radialGradient-1)" stroke-width="5" fill="#36DD51" fill-rule="evenodd" cx="12" cy="12" r="14.5"></circle>
                                <circle stroke-opacity="0.58" stroke="#5FB33C" stroke-width="2" cx="12" cy="12" r="13"></circle>
                            </g>
                            <path d="M10.7384585,13.6726029 L9.26696042,20.3086951 C9.2634443,20.3579164 9.2493798,20.4053799 9.2493798,20.4563591 C9.26168624,20.7692663 9.5148472,21.0118572 9.81547585,20.9995518 C9.96842727,20.9925202 10.1108303,20.9169303 10.2075237,20.7938769 L18.8466415,10.1339397 C18.9591575,9.99682313 19.0048671,9.85970652 18.999593,9.720832 C18.9872865,9.42023021 18.7499481,9.18291302 18.4616259,9.18115511 C18.4299808,9.1776393 18.4264647,9.17939721 18.4211905,9.17939721 L14.9630821,9.1424812 L17.3259177,3.80020727 C17.361079,3.71934363 17.3804176,3.63320627 17.3786596,3.5435531 C17.3733854,3.39413116 17.3100952,3.25174083 17.2046114,3.14978233 C17.0991277,3.04782383 16.9549666,2.99508669 16.8108055,3.0003604 C16.8072893,3.0003604 14.6993727,3.0003604 10.4888137,3.00211831 C10.2567495,3.00739202 10.0703949,3.14275073 9.98952401,3.34315191 C9.98600789,3.35194143 8.67273539,6.53374987 6.04619042,12.8903351 C6.01278724,12.965925 5.99696468,13.0503045 6.0004808,13.132926 C6.01278724,13.4458332 6.2659482,13.6884241 6.56657683,13.6761187 C6.57009296,13.6761187 7.96072018,13.6743608 10.7384585,13.6726029 Z" id="路径" fill="#FFFFFF"></path>
                        </g>
                    </g>
                </g>
            </g>
        </g>
    </g>
</svg>