<?xml version="1.0" encoding="UTF-8"?>
<svg width="22px" height="22px" viewBox="0 0 22 22" version="1.1" xmlns="http://www.w3.org/2000/svg" xmlns:xlink="http://www.w3.org/1999/xlink">
    <title>07-1@2x</title>
    <g id="页面-1" stroke="none" stroke-width="1" fill="none" fill-rule="evenodd">
        <g id="Web-PURE-POWER-FOR-ALL-活动页" transform="translate(-454, -13093)" fill="#000000" fill-rule="nonzero">
            <g id="编组-30" transform="translate(320, 12502)">
                <g id="编组-21备份" transform="translate(0, 280)">
                    <g id="编组-17" transform="translate(0, 301)">
                        <g id="编组-18" transform="translate(18, 10)">
                            <path d="M127,0 C133.075132,0 138,4.92486775 138,11 C138,17.0751322 133.075132,22 127,22 C120.924868,22 116,17.0751322 116,11 C116,4.92486775 120.924868,0 127,0 Z M127,2 C122.029437,2 118,6.02943725 118,11 C118,15.9705627 122.029437,20 127,20 C131.970563,20 136,15.9705627 136,11 C136,6.02943725 131.970563,2 127,2 Z M125.35658,6.42251 L131.7852,10.134 C132.4518,10.5189 132.4518,11.4812 131.7852,11.8661 L125.35658,15.5776 C124.68992,15.9625 123.85658,15.4814 123.85658,14.7116 L123.85658,7.28853 C123.85658,6.51873 124.68992,6.03761 125.35658,6.42251 Z" id="07-1"></path>
                        </g>
                    </g>
                </g>
            </g>
        </g>
    </g>
</svg>