<?xml version="1.0" encoding="UTF-8"?>
<svg width="300px" height="40px" viewBox="0 0 300 40" version="1.1" xmlns="http://www.w3.org/2000/svg" xmlns:xlink="http://www.w3.org/1999/xlink">
    <title>08-1@2x</title>
    <g id="页面-1" stroke="none" stroke-width="1" fill="none" fill-rule="evenodd">
        <g id="08-1">
            <path d="M35.3358297,15.3832493 L45.8701037,39.3076059 L40.1495075,39.3076059 L38.0627966,34.181207 L27.1274196,34.181207 L25.0407087,39.3076059 L19.4532218,39.3076059 L29.9546623,15.3832493 L35.3358297,15.3832493 Z M5.89008881,15.3837286 L13.05714,32.47187 L20.325798,15.3837286 L25.7433486,15.3837286 L15.5480597,39.3072137 L10.1642301,39.3072137 L0,15.3837286 L5.89008881,15.3837286 Z M32.6115249,20.8185828 L28.8773639,29.9781264 L36.3461296,29.9781264 L32.6115249,20.8185828 Z M60.8948662,27.1226373 C61.746766,26.404985 62.1722723,25.3858055 62.1722723,24.0633558 C62.1722723,22.7204267 61.746766,21.6877394 60.8948662,20.9700872 C60.0411915,20.2519992 58.7970628,19.8942624 57.1584867,19.8942624 L52.7170713,19.8942624 L52.7170713,28.2006407 L57.1584867,28.2006407 C58.7970628,28.2006407 60.0411915,27.8402895 60.8948662,27.1226373 M62.8963871,16.4436927 C64.4329127,17.1500159 65.6171423,18.1508946 66.4459698,19.4511219 C67.2752411,20.7482991 67.6927608,22.2881795 67.6927608,24.0633558 C67.6927608,25.8180526 67.2752411,27.3513971 66.4459698,28.6603391 C65.6171423,29.971024 64.4329127,30.9745171 62.8963871,31.6695112 C61.3607489,32.3649411 59.5486869,32.7113489 57.461976,32.7113489 L52.7170713,32.7113489 L52.7170713,39.3074751 L47.2662434,39.3074751 L47.2662434,15.38399 L57.461976,15.38399 C59.5486869,15.38399 61.3607489,15.7369337 62.8963871,16.4436927 M108.477377,20.9700436 C107.625478,20.2523913 106.379574,19.8946545 104.742773,19.8946545 L100.301801,19.8946545 L100.301801,28.2345843 L104.742773,28.2345843 C106.379574,28.2345843 107.625478,27.8694401 108.477377,27.1408945 C109.331052,26.4114774 109.757446,25.3857619 109.757446,24.0633122 C109.757446,22.7203831 109.331052,21.6876959 108.477377,20.9700436 L108.477377,20.9700436 Z M109.857278,39.3074316 L105.31603,32.6437667 L105.046262,32.6437667 L100.301801,32.6437667 L100.301801,39.3074316 L94.8487545,39.3074316 L94.8487545,15.3835107 L105.046262,15.3835107 C107.132973,15.3835107 108.943704,15.7368902 110.479342,16.4432134 C112.015424,17.1495366 113.199653,18.1504153 114.031587,19.4506426 C114.860414,20.7482555 115.275272,22.2877002 115.275272,24.0633122 C115.275272,25.8406672 114.853759,27.3740116 114.01517,28.6598598 C113.172588,29.948758 111.977266,30.9339503 110.430092,31.6176154 L115.714533,39.3074316 L109.857278,39.3074316 Z M135.351845,34.864785 L135.351845,39.3079545 L117.114533,39.3079545 L117.114533,15.3835978 L134.914802,15.3835978 L134.914802,19.8267673 L122.532527,19.8267673 L122.532527,25.0211405 L133.467904,25.0211405 L133.467904,29.3283613 L122.532527,29.3283613 L122.532527,34.864785 L135.351845,34.864785 Z M140.941816,38.5655526 C139.202521,38.0683812 137.804873,37.4248035 136.752865,36.6322052 L138.603085,32.5990605 C139.612498,33.3262988 140.812257,33.9101811 142.203693,34.3507072 C143.59513,34.7929762 144.983904,35.0121499 146.37534,35.0121499 C147.924289,35.0121499 149.067699,34.7864402 149.80823,34.3354565 C150.548762,33.8818584 150.918362,33.2822898 150.918362,32.5332648 C150.918362,31.9838054 150.700063,31.5267215 150.263021,31.1633202 C149.82376,30.7994831 149.264257,30.5062348 148.579631,30.2870611 C147.895449,30.0661445 146.969895,29.8234412 145.803857,29.5602584 C144.009987,29.1423905 142.54046,28.7219081 141.394388,28.3031687 C140.250979,27.8853008 139.269519,27.2129647 138.45134,26.2865963 C137.630943,25.3628424 137.222741,24.127975 137.222741,22.5867874 C137.222741,21.2421153 137.593229,20.025113 138.333317,18.934909 C139.073405,17.8442693 140.188418,16.979775 141.681904,16.3405547 C143.173173,15.703513 144.994996,15.3832493 147.148706,15.3832493 C148.651066,15.3832493 150.122368,15.5584139 151.558175,15.9113577 C152.992206,16.2634299 154.249646,16.769316 155.326057,17.4307587 L153.643111,21.4965834 C151.466773,20.2856813 149.291322,19.679141 147.114984,19.679141 C145.590439,19.679141 144.462559,19.9218443 143.73312,20.4063794 C143.00368,20.890043 142.640735,21.5292633 142.640735,22.3222974 C142.640735,23.11446 143.061805,23.7057497 143.902168,24.0909377 C144.742976,24.4765614 146.027037,24.8552134 147.754797,25.2295081 C149.549555,25.6499904 151.018638,26.0678584 152.162935,26.4857263 C153.308563,26.9044658 154.289579,27.5659085 155.107757,28.4700545 C155.92638,29.3715861 156.336357,30.5959958 156.336357,32.1376192 C156.336357,33.4596331 155.959214,34.6661779 155.208477,35.7559461 C154.456853,36.8470216 153.328973,37.7119516 151.826168,38.3485575 C150.323364,38.9877778 148.495328,39.3080416 146.341619,39.3080416 C144.479863,39.3080416 142.67845,39.0605453 140.941816,38.5655526 M161.926062,38.5655526 C160.18721,38.0683812 158.789118,37.4248035 157.737111,36.6322052 L159.587331,32.5990605 C160.597187,33.3262988 161.796502,33.9101811 163.187939,34.3507072 C164.579375,34.7929762 165.968149,35.0121499 167.359586,35.0121499 C168.908535,35.0121499 170.051944,34.7864402 170.792476,34.3354565 C171.533008,33.8818584 171.902608,33.2822898 171.902608,32.5332648 C171.902608,31.9838054 171.684309,31.5267215 171.247266,31.1633202 C170.808005,30.7994831 170.248502,30.5062348 169.563877,30.2870611 C168.879695,30.0661445 167.954585,29.8234412 166.788103,29.5602584 C164.994233,29.1423905 163.524705,28.7219081 162.378634,28.3031687 C161.235225,27.8853008 160.253765,27.2129647 159.435586,26.2865963 C158.615189,25.3628424 158.206987,24.127975 158.206987,22.5867874 C158.206987,21.2421153 158.577474,20.025113 159.317562,18.934909 C160.05765,17.8442693 161.172663,16.979775 162.66615,16.3405547 C164.157418,15.703513 165.979242,15.3832493 168.132951,15.3832493 C169.635312,15.3832493 171.106614,15.5584139 172.54242,15.9113577 C173.976452,16.2634299 175.233891,16.769316 176.310302,17.4307587 L174.627356,21.4965834 C172.451018,20.2856813 170.275568,19.679141 168.09923,19.679141 C166.574684,19.679141 165.446804,19.9218443 164.717365,20.4063794 C163.98837,20.890043 163.624981,21.5292633 163.624981,22.3222974 C163.624981,23.11446 164.04605,23.7057497 164.886414,24.0909377 C165.727221,24.4765614 167.011283,24.8552134 168.739042,25.2295081 C170.5338,25.6499904 172.002884,26.0678584 173.14718,26.4857263 C174.292808,26.9044658 175.273824,27.5659085 176.092003,28.4700545 C176.910625,29.3715861 177.320602,30.5959958 177.320602,32.1376192 C177.320602,33.4596331 176.943459,34.6661779 176.192722,35.7559461 C175.441098,36.8470216 174.313218,37.7119516 172.810414,38.3485575 C171.307609,38.9877778 169.479574,39.3080416 167.325865,39.3080416 C165.464109,39.3080416 163.662695,39.0605453 161.926062,38.5655526 M190.901838,15.3835978 C184.174492,15.3835978 178.721001,20.7391923 178.721001,27.3453404 C178.721001,33.95236 184.174492,39.3075187 190.901838,39.3075187 C197.628741,39.3075187 203.082231,33.95236 203.082231,27.3453404 C203.082231,20.7391923 197.628741,15.3835978 190.901838,15.3835978 M190.901838,20.4080352 C194.797061,20.4080352 197.965951,23.5200403 197.965951,27.3453404 C197.965951,31.1706405 194.797061,34.2830814 190.901838,34.2830814 C187.006615,34.2830814 183.837281,31.1706405 183.837281,27.3453404 C183.837281,23.5200403 187.006615,20.4080352 190.901838,20.4080352 M81.2672968,15.3835978 C74.5399502,15.3835978 69.08646,20.7391923 69.08646,27.3453404 C69.08646,33.95236 74.5399502,39.3075187 81.2672968,39.3075187 C87.9941997,39.3075187 93.4476899,33.95236 93.4476899,27.3453404 C93.4476899,20.7391923 87.9941997,15.3835978 81.2672968,15.3835978 M81.2672968,20.4080352 C85.1625201,20.4080352 88.3314101,23.5200403 88.3314101,27.3453404 C88.3314101,31.1706405 85.1625201,34.2830814 81.2672968,34.2830814 C77.3720735,34.2830814 74.2027398,31.1706405 74.2027398,27.3453404 C74.2027398,23.5200403 77.3720735,20.4080352 81.2672968,20.4080352" id="形状结合" fill="#FFFFFF"></path>
            <path d="M240.459426,0.00662350631 C242.386406,0.0876698461 243.735247,0.65586569 244.506394,1.71033957 C244.974051,2.38616147 245.229178,3.17004515 245.270442,4.06199063 C245.311705,4.95437183 245.091188,5.96178655 244.609775,7.08336331 C244.12792,8.20537581 243.363872,9.4289141 242.318076,10.7531067 C241.271393,12.0781708 239.881731,13.5108609 238.147316,15.0520486 C237.844271,15.3226388 237.624197,15.4847315 237.48665,15.5387624 C237.348217,15.593229 237.265689,15.5792855 237.238623,15.4982392 C237.21067,15.4171929 237.224425,15.2890873 237.279887,15.1126155 C237.334906,14.9374508 237.430744,14.7548787 237.569178,14.5653348 C238.119363,13.835482 238.759619,12.9500726 239.489502,11.9091064 C240.218498,10.868576 240.899574,9.80756609 241.533175,8.72607676 C242.166331,7.64458743 243.757432,4.83062365 242.646413,3.63627948 C240.592979,1.42972752 231.219862,6.60841433 223.152104,15.3727481 C218.892605,20.0002326 211.433157,29.7780814 216.765518,34.8826936 C217.942204,36.0086277 219.954374,37.4600543 224.726344,36.9912056 C226.427482,36.8238841 228.009708,35.9977344 229.619888,35.307969 C229.942826,35.169755 230.263266,35.027477 230.581213,34.8811278 C230.40226,34.6161352 230.243859,34.328507 230.102808,34.0177636 C229.82106,33.3946654 229.632932,32.7266867 229.539312,32.0107773 C229.444805,31.2961752 229.469208,30.6617479 229.60986,30.1079313 C230.314009,27.8935361 231.441888,25.9680319 232.992169,24.3301116 C234.542449,22.6930626 236.13843,21.4930539 237.783218,20.7322641 C239.427118,19.9710385 240.883778,19.7178777 242.152311,19.9710385 C243.420399,20.2246351 244.124991,21.112659 244.266087,22.6351102 C245.251984,22.7274856 245.968112,23.049928 246.414916,23.6037446 C246.860388,24.1571256 246.966432,24.6190025 246.73216,24.9876327 C246.355017,25.4490739 245.898008,26.0490783 245.358028,26.7867743 C244.81716,27.524906 244.311788,28.2861316 243.842799,29.0700152 C243.372923,29.8552061 243.008204,30.581573 242.750859,31.2499875 C242.492183,31.9192734 242.47976,32.4155733 242.715807,32.73758 C242.903047,33.0608939 243.3605,33.1872564 244.089495,33.1184106 C244.81716,33.0491291 245.6979,32.853485 246.73216,32.5297353 C247.764645,32.2077286 248.91604,31.7807103 250.185016,31.2499875 C251.452661,30.7201361 252.721193,30.1318966 253.989725,29.4852688 C255.25737,28.8395125 256.491294,28.1824271 257.68839,27.5131412 L258.01544,27.3299569 C258.035721,27.2758962 258.056057,27.2216191 258.076449,27.1671256 C258.498849,26.0372699 258.874661,24.9531662 259.203441,23.9152502 C259.531777,22.8768984 259.79001,21.9666521 259.979025,21.181897 C260.165378,20.3980133 260.212854,19.8441967 260.119677,19.5208828 C260.447126,19.4293788 260.88195,19.4864599 261.423261,19.6938688 C261.962798,19.9017134 262.46817,20.2023692 262.937602,20.5936574 C263.407034,20.9858171 263.724278,21.4476941 263.88889,21.9775455 C264.053058,22.508704 263.924386,23.0272263 263.501098,23.5348552 C263.172318,23.9043568 262.843538,24.3993495 262.515202,25.022012 C262.186422,25.6451102 261.869178,26.2913023 261.563914,26.9597167 C261.257762,27.6290026 260.964922,28.2747589 260.683173,28.8969857 C260.441675,29.4310698 260.233753,29.8719961 260.061921,30.2192156 L259.979573,30.384 L260.156259,30.1936105 C260.64283,29.6650646 261.241,28.9913461 261.951705,28.1706187 C262.749474,27.2486077 263.56011,26.3143961 264.382282,25.367984 C265.203567,24.4233149 265.955635,23.5461843 266.636711,22.738771 C267.317787,21.9322292 267.800087,21.3670835 268.081835,21.0433339 C268.691919,20.3980133 269.184424,20.2716507 269.561567,20.6625032 C269.936935,21.0550987 270.35978,21.4825528 270.829212,21.9431226 C271.627424,22.7278777 272.90838,23.3387754 274.66986,23.7766871 C275.71285,24.0364947 276.850418,24.1303994 278.08275,24.0583105 C278.443438,23.634203 278.820209,23.2292494 279.214169,22.8426934 C280.246654,21.8283069 281.338594,21.0326584 282.490434,20.4553122 C283.640499,19.8788374 284.755955,19.659228 285.837247,19.7977911 C286.401187,19.8906022 286.975776,20.0400586 287.563675,20.2474676 C288.150687,20.4553122 288.667152,20.7320027 289.113068,21.0779747 C289.558984,21.4239467 289.876228,21.8392002 290.0648,22.3232996 C290.25204,22.8078347 290.25204,23.350758 290.0648,23.9494552 C289.782608,24.8732092 289.242628,25.7141739 288.444859,26.4753995 C287.645316,27.2361893 286.717987,27.9054752 285.661099,28.48195 C284.603767,29.0592962 283.441279,29.5089727 282.17319,29.8314151 C280.905102,30.154729 279.660086,30.3394798 278.438585,30.384796 C278.156837,31.3081143 278.074753,32.0000583 278.192333,32.4606281 C278.308582,32.9225051 278.555722,33.2336184 278.932421,33.3948396 C279.307789,33.5560609 279.813161,33.6026843 280.446762,33.5334027 C281.080806,33.4641212 281.773418,33.3377586 282.52593,33.1530078 C283.840163,32.8758816 285.320339,32.4723929 286.964683,31.9416701 C288.60814,31.4118187 290.228524,30.8000496 291.82628,30.1081056 C293.422705,29.4161615 294.93749,28.6897946 296.371077,27.928569 C297.803334,27.1669077 298.965822,26.4645061 299.858542,25.8178783 C300.000526,25.633999 300.035134,25.6684219 299.964586,25.9215828 C299.894038,26.1760509 299.835026,26.3490369 299.787994,26.4409766 C298.05003,28.1477427 296.112401,29.6819587 293.975109,31.0423171 C291.836929,32.4035471 289.759092,33.5438603 287.739823,34.4671786 C285.719223,35.3900611 283.875215,36.0467107 282.208686,36.4393062 C280.540382,36.8310302 279.331305,36.8894184 278.579238,36.6122922 C277.968709,36.380918 277.39279,36.0244884 276.853697,35.5399533 C276.313273,35.0554181 275.867356,34.5020372 275.514173,33.878939 C275.162321,33.2567123 274.916068,32.610956 274.774972,31.9416701 C274.633876,31.2732556 274.633876,30.6388284 274.774972,30.038824 C275.102421,28.7930633 275.666805,27.5368451 276.465905,26.2675548 C276.63118,26.00492 276.801497,25.7477213 276.976862,25.4959588 C276.247121,25.6192399 275.500745,25.6795331 274.740408,25.6795331 C273.542424,25.6795331 272.414544,25.5414058 271.3581,25.2642796 C270.300768,24.9875891 269.53672,24.5723355 269.067731,24.0185189 C268.738951,23.6503245 268.127536,23.9152502 267.235703,24.8146031 C266.343427,25.7143918 265.369066,26.8560122 264.311734,28.2394645 C263.25529,29.6237883 262.208607,31.0420993 261.176122,32.4952689 C260.142306,33.9484384 259.344093,35.0434355 258.780597,35.7820029 C258.358197,36.2896319 257.957981,36.4848403 257.582613,36.3702425 C257.206357,36.2547733 256.878464,36.0247062 256.596716,35.6782985 C256.314968,35.3323265 256.078921,34.9745897 255.891237,34.6059595 C255.703553,34.2360222 255.609932,34.0055195 255.609932,33.9135798 C255.609932,33.8212044 255.726625,33.4294804 255.961785,32.7375364 C256.196501,32.0451567 256.501321,31.2268501 256.878464,30.2813094 C257.006764,29.9582755 257.137863,29.624399 257.271761,29.2796623 L257.230494,29.3122828 C255.726359,30.4887619 254.117954,31.6199248 252.403949,32.7027213 C250.688613,33.7863893 248.997681,34.686178 247.331152,35.4016516 C245.663292,36.115818 244.24124,36.4156023 243.068103,36.3010045 C241.893191,36.1850995 241.094979,35.539779 240.672578,34.3637356 C240.250178,33.1872564 240.436531,31.2390942 241.236075,28.5166343 C240.813231,29.254766 240.225331,30.062615 239.47415,30.9384384 C238.72297,31.8155689 237.92387,32.6338755 237.07907,33.3946654 C236.233825,34.1558909 235.410766,34.8016472 234.612997,35.33237 C233.813453,35.8622214 233.133265,36.1506766 232.569325,36.1973001 C232.349981,36.2164965 232.139395,36.1924535 231.937399,36.1250717 C231.320597,36.5205375 230.692206,36.8971698 230.05338,37.2548241 C228.484465,38.1328261 226.887153,38.8221557 225.263662,39.3232487 C223.638841,39.8230344 222.042416,40.0461297 220.4735,39.9920989 C219.372242,39.9110525 218.270097,39.6674778 217.169726,39.2622461 C216.068468,38.8565786 215.056394,38.3153982 214.134833,37.6400121 C213.211942,36.9637544 212.413729,36.1864067 211.739308,35.307969 C211.064888,34.4290955 210.603886,33.5035986 210.356302,32.5301711 C209.998682,30.9894191 210.060356,29.2721954 210.541768,27.3802426 C211.02318,25.4874184 211.807638,23.5479708 212.895585,21.5610283 C213.982645,19.57365 215.31152,17.5867075 216.880435,15.599765 C218.449795,13.6123867 220.135846,11.7470137 221.939034,10.0032102 C223.742222,8.25940671 225.587118,6.69163934 227.47239,5.29903664 C229.358106,3.90686967 231.182148,2.80490089 232.944516,1.99356603 C236.026884,0.588327074 238.532002,-0.0744228335 240.459426,0.00662350631 Z M242.786355,22.7043917 C241.893191,22.7505794 241.000471,23.0272699 240.109082,23.5344631 C239.215918,24.0425278 238.347158,24.6651902 237.50147,25.4024505 C236.656225,26.1414537 235.880642,26.9249016 235.176493,27.7554087 C234.472345,28.5859159 233.872909,29.370671 233.379961,30.1079313 C232.886125,30.8464987 232.509869,31.492255 232.252524,32.0452002 C231.993849,32.5990169 231.910877,32.9449889 232.005385,33.083552 C232.146037,33.3602424 232.486797,33.3842078 233.027221,33.1528335 C233.566757,32.9223308 234.201245,32.5297353 234.929354,31.9759187 C235.657905,31.4225378 236.432602,30.7545591 237.255218,29.9698039 C238.076502,29.1859202 238.863622,28.3671779 239.615246,27.5131412 C240.365983,26.659976 241.024874,25.8072465 241.588371,24.952774 C242.152311,24.0996088 242.550308,23.3505838 242.786355,22.7043917 Z M286.647439,21.7699187 C286.013395,21.9320114 285.237811,22.3232996 284.322462,22.9463978 C283.405783,23.5690603 282.454938,24.3991317 281.468598,25.4374834 C280.481814,26.4753995 279.683158,27.6409853 279.073517,28.9316264 C279.82381,28.7477471 280.645538,28.4244332 281.539146,27.962992 C282.430979,27.5024222 283.288646,26.9594988 284.110819,26.3368364 C284.932547,25.7141739 285.649119,25.0457595 286.259647,24.3298501 C286.869732,23.6156837 287.269504,22.9115392 287.457631,22.2195952 C287.551695,21.7590254 287.281483,21.6091332 286.647439,21.7699187 Z" id="形状结合" fill="#00FF00"></path>
        </g>
    </g>
</svg>