<?xml version="1.0" encoding="UTF-8"?>
<svg width="57px" height="57px" viewBox="0 0 57 57" version="1.1" xmlns="http://www.w3.org/2000/svg" xmlns:xlink="http://www.w3.org/1999/xlink">
    <title>08-2@2x</title>
    <defs>
        <polygon id="path-1" points="0 0 17.0469301 0 17.0469301 32.4291957 0 32.4291957"></polygon>
        <polygon id="path-3" points="0 0 32.4273952 0 32.4273952 17.0466107 0 17.0466107"></polygon>
    </defs>
    <g id="页面-1" stroke="none" stroke-width="1" fill="none" fill-rule="evenodd">
        <g id="编组-3" transform="translate(-191, -10)">
            <g id="08-2" transform="translate(191, 10)">
                <polygon id="Fill-1" fill="#0BF921" points="26.8305287 46.6325947 39.688195 23.491941 30.1691548 23.491941 30.1691548 10.364557 17.3146531 33.5115402 26.8305287 33.5115402"></polygon>
                <g id="编组">
                    <path d="M42.7923262,44.7967231 C38.9695202,48.1576878 33.9758215,50.3192123 28.5011076,50.3192123 C25.3491914,50.3192123 22.383985,49.4773887 19.684603,48.2557951 L21.2194216,55.9334792 C23.5422193,56.5506055 25.9789417,57 28.5011076,57 C35.8270976,57 42.4853625,54.0884298 47.5233651,49.5280247 L49.7543902,51.7591736 L52.1025045,39.9514905 L40.3081352,42.3123942 L42.7923262,44.7967231 Z" id="Fill-2" fill="#0BF921"></path>
                    <g transform="translate(0, 19.6819)">
                        <mask id="mask-2" fill="white">
                            <use xlink:href="#path-1"></use>
                        </mask>
                        <g id="Clip-5"></g>
                        <path d="M12.2019665,23.1090062 C8.8443529,19.2859879 6.67978392,14.2951768 6.67978392,8.81699415 C6.67978392,5.66490292 7.52472532,2.7026967 8.74308652,0 L1.06899328,1.53806861 C0.448736669,3.85783054 -0.000632914906,6.29785297 -0.000632914906,8.81699415 C-0.000632914906,16.1465557 2.91394023,22.8020254 7.47092755,27.8403078 L5.24306708,30.068292 L17.0469301,32.4291957 L14.6861575,20.627842 L12.2019665,23.1090062 Z" id="Fill-4" fill="#0BF921" mask="url(#mask-2)"></path>
                    </g>
                    <g transform="translate(4.889, 0)">
                        <mask id="mask-4" fill="white">
                            <use xlink:href="#path-3"></use>
                        </mask>
                        <g id="Clip-7"></g>
                        <path d="M32.4273952,8.7391413 L30.8925766,1.06778673 C28.5697789,0.447495683 26.1330565,-0.00189885014 23.6108906,-0.00189885014 C16.2849005,-0.00189885014 9.62663572,2.90967137 4.58863307,7.4732412 L2.3607726,5.24525704 L0,17.0466107 L11.803863,14.685707 L9.31967199,12.2013781 C13.142478,8.84357806 18.1361766,6.6788889 23.6108906,6.6788889 C26.7628068,6.6788889 29.7280131,7.52071246 32.4273952,8.7391413" id="Fill-6" fill="#0BF921" mask="url(#mask-4)"></path>
                    </g>
                    <path d="M51.7563,7.24632861 L39.952437,4.88858969 L42.3132096,16.6899433 L44.7974006,14.2024496 C48.1550142,18.0286327 50.3195832,23.0226085 50.3195832,28.5007912 C50.3195832,31.6497177 49.4746418,34.6150886 48.2594451,37.3146206 L55.9303738,35.7860462 C56.5506304,33.4567901 57,31.0230971 57,28.5007912 C57,21.1680649 54.0885914,14.5125952 49.5284395,9.47431278 L51.7563,7.24632861 Z" id="Fill-8" fill="#0BF921"></path>
                </g>
            </g>
        </g>
    </g>
</svg>