<?xml version="1.0" encoding="UTF-8"?>
<svg width="18px" height="18px" viewBox="0 0 18 18" version="1.1" xmlns="http://www.w3.org/2000/svg" xmlns:xlink="http://www.w3.org/1999/xlink">
    <title>9-11</title>
    <g id="页面-1" stroke="none" stroke-width="1" fill="none" fill-rule="evenodd">
        <g id="Web-PURE-POWER-FOR-ALL-活动页" transform="translate(-351, -16694)">
            <g id="编组-23" transform="translate(320, 16164)">
                <g id="编组-20" transform="translate(0, 119)">
                    <g id="编组-19" transform="translate(0, 366)">
                        <g id="9-11" transform="translate(31, 45)">
                            <circle id="椭圆形" fill="#03FE00" cx="9" cy="9" r="9"></circle>
                            <path d="M8.48435922,11.9961307 C8.34723915,12.1334841 8.1611243,12.2106681 7.96704215,12.2106681 C7.77296,12.2106681 7.58684515,12.1334841 7.44972507,11.9961307 C7.39740396,11.9397963 7.35464488,11.875287 7.32313971,11.8051551 L4.60484702,9.00564288 C4.41835338,8.81934644 4.34648056,8.54713795 4.41669958,8.29306015 C4.4869186,8.03898235 4.68837429,7.84231317 4.94406684,7.77822293 C5.19975939,7.71413269 5.47016125,7.79252912 5.65192019,7.98344776 L8.00509093,10.4061307 L12.4985056,5.91271605 C12.7856121,5.63541937 13.2419822,5.63938513 13.5242264,5.92162935 C13.8064706,6.20387357 13.8104364,6.66024369 13.5331397,6.9473502 L8.48435922,11.9961307 Z" id="路径" fill="#000000"></path>
                        </g>
                    </g>
                </g>
            </g>
        </g>
    </g>
</svg>